# File produced by Open Asset Import Library (http://www.assimp.sf.net)
# (assimp v3.0.1262)

mtllib nail-1.stl.obj.mtl

# 258 vertex positions
v  0.0136287 -0.0651627 -0.0140752
v  0.00141932 -0.0563308 -0.00185385
v  0.00171114 -0.0548354 -0.0130018
v  0.00171114 -0.0548354 -0.0130018
v  0.00141932 -0.0563308 -0.00185385
v  -0.0111554 -0.0141645 0.000950909
v  -0.0011978 0.0297531 0.0270139
v  0.00225974 0.0449399 0.0128332
v  -0.00704931 0.0410179 0.0216166
v  -0.014435 0.0459036 0.0057703
v  -0.00704931 0.0410179 0.0216166
v  0.00225974 0.0449399 0.0128332
v  0.00171114 -0.0548354 -0.0130018
v  -0.0111554 -0.0141645 0.000950909
v  -0.0109932 -0.0133334 -0.00524177
v  0.028353 -0.0484167 -8.66886e-05
v  0.016103 -0.00458536 -0.00968685
v  0.0156157 -0.00708351 0.00892935
v  0.0200539 -0.0519129 0.00774345
v  0.028353 -0.0484167 -8.66886e-05
v  0.0156157 -0.00708351 0.00892935
v  0.00741459 -0.0100785 0.0130259
v  0.00900031 0.0226292 0.0100165
v  -0.000308503 0.0187077 0.0187994
v  0.0156157 -0.00708351 0.00892935
v  0.016103 -0.00458536 -0.00968685
v  0.00934745 0.0244087 -0.00324621
v  -0.000308503 0.0187077 0.0187994
v  0.011967 0.0352992 0.0145923
v  -0.0011978 0.0297531 0.0270139
v  -0.000308503 0.0187077 0.0187994
v  0.00900031 0.0226292 0.0100165
v  0.011967 0.0352992 0.0145923
v  0.0124579 0.037816 -0.0041646
v  -1.23876e-05 0.0358285 -0.0182675
v  -0.00621103 0.0453142 -0.0104021
v  0.0244024 -0.061997 -0.013368
v  0.01001 -0.0513392 -0.020832
v  0.0207834 -0.0481735 -0.0201253
v  -0.014435 0.0459036 0.0057703
v  -0.00621103 0.0453142 -0.0104021
v  -0.0190287 0.0415477 -0.0112428
v  -0.014435 0.0459036 0.0057703
v  0.00260688 0.046719 -0.000429534
v  -0.00621103 0.0453142 -0.0104021
v  -0.0131261 0.0149411 0.0179587
v  -0.000308503 0.0187077 0.0187994
v  -0.0011978 0.0297531 0.0270139
v  -0.0193248 0.0244268 0.0258242
v  -0.0011978 0.0297531 0.0270139
v  -0.00704931 0.0410179 0.0216166
v  -0.00319694 -0.0124131 0.00612602
v  -0.000308503 0.0187077 0.0187994
v  -0.0131261 0.0149411 0.0179587
v  -0.00319694 -0.0124131 0.00612602
v  0.00741459 -0.0100785 0.0130259
v  -0.000308503 0.0187077 0.0187994
v  0.0244024 -0.061997 -0.013368
v  0.0133371 -0.0666586 -0.00292768
v  0.0136287 -0.0651627 -0.0140752
v  0.0244024 -0.061997 -0.013368
v  0.0136287 -0.0651627 -0.0140752
v  0.01001 -0.0513392 -0.020832
v  0.0124579 0.037816 -0.0041646
v  -0.00621103 0.0453142 -0.0104021
v  0.00260688 0.046719 -0.000429534
v  0.00928045 -0.0550786 0.00703678
v  0.00741459 -0.0100785 0.0130259
v  -0.00319694 -0.0124131 0.00612602
v  0.0241106 -0.0634929 -0.00222101
v  0.028353 -0.0484167 -8.66886e-05
v  0.0200539 -0.0519129 0.00774345
v  -0.014435 0.0459036 0.0057703
v  0.00225974 0.0449399 0.0128332
v  0.00260688 0.046719 -0.000429534
v  -1.23876e-05 0.0358285 -0.0182675
v  -0.0190287 0.0415477 -0.0112428
v  -0.00621103 0.0453142 -0.0104021
v  0.011967 0.0352992 0.0145923
v  0.00260688 0.046719 -0.000429534
v  0.00225974 0.0449399 0.0128332
v  0.0200539 -0.0519129 0.00774345
v  0.0156157 -0.00708351 0.00892935
v  0.00741459 -0.0100785 0.0130259
v  -0.031795 0.0224399 0.0117212
v  -0.0193248 0.0244268 0.0258242
v  -0.0198669 0.0372514 0.0207759
v  -0.0193248 0.0244268 0.0258242
v  -0.00704931 0.0410179 0.0216166
v  -0.0198669 0.0372514 0.0207759
v  0.0244024 -0.061997 -0.013368
v  0.0207834 -0.0481735 -0.0201253
v  0.0286448 -0.0469209 -0.0112347
v  0.0286448 -0.0469209 -0.0112347
v  0.0207834 -0.0481735 -0.0201253
v  0.00814391 -0.00633916 -0.0148434
v  0.0241106 -0.0634929 -0.00222101
v  0.0244024 -0.061997 -0.013368
v  0.0286448 -0.0469209 -0.0112347
v  0.00141932 -0.0563308 -0.00185385
v  -0.00319694 -0.0124131 0.00612602
v  -0.0111554 -0.0141645 0.000950909
v  0.00141932 -0.0563308 -0.00185385
v  0.00928045 -0.0550786 0.00703678
v  -0.00319694 -0.0124131 0.00612602
v  0.0136287 -0.0651627 -0.0140752
v  0.0133371 -0.0666586 -0.00292768
v  0.00141932 -0.0563308 -0.00185385
v  0.0133371 -0.0666586 -0.00292768
v  0.00928045 -0.0550786 0.00703678
v  0.00141932 -0.0563308 -0.00185385
v  -0.031795 0.0224399 0.0117212
v  -0.0198669 0.0372514 0.0207759
v  -0.0286846 0.0358466 0.0108028
v  0.0286448 -0.0469209 -0.0112347
v  0.00814391 -0.00633916 -0.0148434
v  0.016103 -0.00458536 -0.00968685
v  0.0241106 -0.0634929 -0.00222101
v  0.0286448 -0.0469209 -0.0112347
v  0.028353 -0.0484167 -8.66886e-05
v  -0.014435 0.0459036 0.0057703
v  -0.0283375 0.0376262 -0.00245943
v  -0.0286846 0.0358466 0.0108028
v  -0.014435 0.0459036 0.0057703
v  -0.0190287 0.0415477 -0.0112428
v  -0.0283375 0.0376262 -0.00245943
v  -0.0181394 0.0305022 -0.0194568
v  -0.0283375 0.0376262 -0.00245943
v  -0.0190287 0.0415477 -0.0112428
v  -0.0313041 0.0249561 -0.00703516
v  -0.0286846 0.0358466 0.0108028
v  -0.0283375 0.0376262 -0.00245943
v  -0.0181394 0.0305022 -0.0194568
v  -0.0313041 0.0249561 -0.00703516
v  -0.0283375 0.0376262 -0.00245943
v  0.00900031 0.0226292 0.0100165
v  0.0124579 0.037816 -0.0041646
v  0.011967 0.0352992 0.0145923
v  -0.0011978 0.0297531 0.0270139
v  0.011967 0.0352992 0.0145923
v  0.00225974 0.0449399 0.0128332
v  0.011967 0.0352992 0.0145923
v  0.0124579 0.037816 -0.0041646
v  0.00260688 0.046719 -0.000429534
v  0.028353 -0.0484167 -8.66886e-05
v  0.0286448 -0.0469209 -0.0112347
v  0.016103 -0.00458536 -0.00968685
v  -0.014435 0.0459036 0.0057703
v  -0.0286846 0.0358466 0.0108028
v  -0.0198669 0.0372514 0.0207759
v  -0.014435 0.0459036 0.0057703
v  -0.0198669 0.0372514 0.0207759
v  -0.00704931 0.0410179 0.0216166
v  0.0244024 -0.061997 -0.013368
v  0.0241106 -0.0634929 -0.00222101
v  0.0133371 -0.0666586 -0.00292768
v  0.00934745 0.0244087 -0.00324621
v  0.000529776 0.023004 -0.0132188
v  -1.23876e-05 0.0358285 -0.0182675
v  0.000529776 0.023004 -0.0132188
v  -0.0181394 0.0305022 -0.0194568
v  -1.23876e-05 0.0358285 -0.0182675
v  0.016103 -0.00458536 -0.00968685
v  0.00814391 -0.00633916 -0.0148434
v  0.000529776 0.023004 -0.0132188
v  0.00814391 -0.00633916 -0.0148434
v  -0.0122881 0.0192374 -0.0140604
v  0.000529776 0.023004 -0.0132188
v  0.000529776 0.023004 -0.0132188
v  -0.0122881 0.0192374 -0.0140604
v  -0.0181394 0.0305022 -0.0194568
v  0.016103 -0.00458536 -0.00968685
v  0.000529776 0.023004 -0.0132188
v  0.00934745 0.0244087 -0.00324621
v  -1.23876e-05 0.0358285 -0.0182675
v  -0.0181394 0.0305022 -0.0194568
v  -0.0190287 0.0415477 -0.0112428
v  -0.021944 0.0135364 0.00798569
v  -0.0193248 0.0244268 0.0258242
v  -0.031795 0.0224399 0.0117212
v  -0.0215969 0.0153159 -0.00527658
v  -0.031795 0.0224399 0.0117212
v  -0.0313041 0.0249561 -0.00703516
v  -0.0122881 0.0192374 -0.0140604
v  -0.0215969 0.0153159 -0.00527658
v  -0.0313041 0.0249561 -0.00703516
v  -0.0109932 -0.0133334 -0.00524177
v  -0.021944 0.0135364 0.00798569
v  -0.0215969 0.0153159 -0.00527658
v  -0.0215969 0.0153159 -0.00527658
v  -0.021944 0.0135364 0.00798569
v  -0.031795 0.0224399 0.0117212
v  -0.0111554 -0.0141645 0.000950909
v  -0.0131261 0.0149411 0.0179587
v  -0.021944 0.0135364 0.00798569
v  -0.0111554 -0.0141645 0.000950909
v  -0.00319694 -0.0124131 0.00612602
v  -0.0131261 0.0149411 0.0179587
v  -0.0109932 -0.0133334 -0.00524177
v  -0.0111554 -0.0141645 0.000950909
v  -0.021944 0.0135364 0.00798569
v  -0.0122881 0.0192374 -0.0140604
v  -0.0313041 0.0249561 -0.00703516
v  -0.0181394 0.0305022 -0.0194568
v  -0.0313041 0.0249561 -0.00703516
v  -0.031795 0.0224399 0.0117212
v  -0.0286846 0.0358466 0.0108028
v  0.00934745 0.0244087 -0.00324621
v  -1.23876e-05 0.0358285 -0.0182675
v  0.0124579 0.037816 -0.0041646
v  -0.021944 0.0135364 0.00798569
v  -0.0131261 0.0149411 0.0179587
v  -0.0193248 0.0244268 0.0258242
v  -0.0131261 0.0149411 0.0179587
v  -0.0011978 0.0297531 0.0270139
v  -0.0193248 0.0244268 0.0258242
v  0.01001 -0.0513392 -0.020832
v  0.00171114 -0.0548354 -0.0130018
v  -0.0109932 -0.0133334 -0.00524177
v  0.00900031 0.0226292 0.0100165
v  0.00934745 0.0244087 -0.00324621
v  0.0124579 0.037816 -0.0041646
v  0.00741459 -0.0100785 0.0130259
v  0.0156157 -0.00708351 0.00892935
v  0.00900031 0.0226292 0.0100165
v  0.0136287 -0.0651627 -0.0140752
v  0.00171114 -0.0548354 -0.0130018
v  0.01001 -0.0513392 -0.020832
v  -0.00279163 -0.010336 -0.00935688
v  -0.0109932 -0.0133334 -0.00524177
v  -0.0215969 0.0153159 -0.00527658
v  0.0156157 -0.00708351 0.00892935
v  0.00934745 0.0244087 -0.00324621
v  0.00900031 0.0226292 0.0100165
v  0.0207834 -0.0481735 -0.0201253
v  -0.00279163 -0.010336 -0.00935688
v  0.00814391 -0.00633916 -0.0148434
v  0.0207834 -0.0481735 -0.0201253
v  0.01001 -0.0513392 -0.020832
v  -0.00279163 -0.010336 -0.00935688
v  0.01001 -0.0513392 -0.020832
v  -0.0109932 -0.0133334 -0.00524177
v  -0.00279163 -0.010336 -0.00935688
v  -0.00279163 -0.010336 -0.00935688
v  -0.0215969 0.0153159 -0.00527658
v  -0.0122881 0.0192374 -0.0140604
v  0.00814391 -0.00633916 -0.0148434
v  -0.00279163 -0.010336 -0.00935688
v  -0.0122881 0.0192374 -0.0140604
v  0.0133371 -0.0666586 -0.00292768
v  0.0200539 -0.0519129 0.00774345
v  0.00928045 -0.0550786 0.00703678
v  0.00928045 -0.0550786 0.00703678
v  0.0200539 -0.0519129 0.00774345
v  0.00741459 -0.0100785 0.0130259
v  0.0133371 -0.0666586 -0.00292768
v  0.0241106 -0.0634929 -0.00222101
v  0.0200539 -0.0519129 0.00774345

# 0 UV coordinates

# 258 vertex normals
vn -0.65644 -0.745226 -0.117157
vn -0.65644 -0.745226 -0.117157
vn -0.65644 -0.745226 -0.117157
vn -0.957542 -0.281369 -0.0628022
vn -0.957542 -0.281369 -0.0628022
vn -0.957542 -0.281369 -0.0628022
vn 0.429997 0.561954 0.706618
vn 0.429997 0.561954 0.706618
vn 0.429997 0.561954 0.706618
vn -0.0851522 0.94027 0.329608
vn -0.0851522 0.94027 0.329608
vn -0.0851522 0.94027 0.329608
vn -0.957548 -0.281345 -0.0628216
vn -0.957548 -0.281345 -0.0628216
vn -0.957548 -0.281345 -0.0628216
vn 0.957543 0.281363 0.0628258
vn 0.957543 0.281363 0.0628258
vn 0.957543 0.281363 0.0628258
vn 0.674888 0.0473407 0.7364
vn 0.674888 0.0473407 0.7364
vn 0.674888 0.0473407 0.7364
vn 0.678127 0.0346702 0.734126
vn 0.678127 0.0346702 0.734126
vn 0.678127 0.0346702 0.734126
vn 0.975071 0.215125 0.0543906
vn 0.975071 0.215125 0.0543906
vn 0.975071 0.215125 0.0543906
vn 0.714514 -0.379567 0.587706
vn 0.714514 -0.379567 0.587706
vn 0.714514 -0.379567 0.587706
vn 0.714433 -0.379566 0.587805
vn 0.714433 -0.379566 0.587805
vn 0.714433 -0.379566 0.587805
vn 0.461903 0.7252 -0.510618
vn 0.461903 0.7252 -0.510618
vn 0.461903 0.7252 -0.510618
vn 0.175124 -0.394976 -0.901846
vn 0.175124 -0.394976 -0.901846
vn 0.175124 -0.394976 -0.901846
vn -0.267492 0.948344 -0.170565
vn -0.267492 0.948344 -0.170565
vn -0.267492 0.948344 -0.170565
vn -0.0745631 0.994456 -0.0741508
vn -0.0745631 0.994456 -0.0741508
vn -0.0745631 0.994456 -0.0741508
vn 0.11962 -0.586214 0.801277
vn 0.11962 -0.586214 0.801277
vn 0.11962 -0.586214 0.801277
vn -0.164859 0.355271 0.920111
vn -0.164859 0.355271 0.920111
vn -0.164859 0.355271 0.920111
vn 0.0513321 -0.380755 0.92325
vn 0.0513321 -0.380755 0.92325
vn 0.0513321 -0.380755 0.92325
vn -0.474845 -0.293764 0.829593
vn -0.474845 -0.293764 0.829593
vn -0.474845 -0.293764 0.829593
vn 0.28714 -0.950337 -0.120045
vn 0.28714 -0.950337 -0.120045
vn 0.28714 -0.950337 -0.120045
vn 0.175285 -0.394926 -0.901836
vn 0.175285 -0.394926 -0.901836
vn 0.175285 -0.394926 -0.901836
vn 0.461937 0.725231 -0.510543
vn 0.461937 0.725231 -0.510543
vn 0.461937 0.725231 -0.510543
vn -0.519348 -0.133864 0.844013
vn -0.519348 -0.133864 0.844013
vn -0.519348 -0.133864 0.844013
vn 0.718592 -0.291595 0.631346
vn 0.718592 -0.291595 0.631346
vn 0.718592 -0.291595 0.631346
vn 0.000956583 0.991119 0.132978
vn 0.000956583 0.991119 0.132978
vn 0.000956583 0.991119 0.132978
vn -0.119742 0.586177 -0.801286
vn -0.119742 0.586177 -0.801286
vn -0.119742 0.586177 -0.801286
vn 0.689591 0.715172 0.113989
vn 0.689591 0.715172 0.113989
vn 0.689591 0.715172 0.113989
vn 0.440916 0.0199148 0.897328
vn 0.440916 0.0199148 0.897328
vn 0.440916 0.0199148 0.897328
vn -0.746356 0.216228 0.629443
vn -0.746356 0.216228 0.629443
vn -0.746356 0.216228 0.629443
vn -0.164774 0.355236 0.92014
vn -0.164774 0.355236 0.92014
vn -0.164774 0.355236 0.92014
vn 0.752083 -0.119939 -0.648064
vn 0.752083 -0.119939 -0.648064
vn 0.752083 -0.119939 -0.648064
vn 0.695412 0.29296 -0.656183
vn 0.695412 0.29296 -0.656183
vn 0.695412 0.29296 -0.656183
vn 0.962963 -0.269412 -0.0109447
vn 0.962963 -0.269412 -0.0109447
vn 0.962963 -0.269412 -0.0109447
vn -0.501298 -0.205427 0.840535
vn -0.501298 -0.205427 0.840535
vn -0.501298 -0.205427 0.840535
vn -0.720685 -0.196543 0.664819
vn -0.720685 -0.196543 0.664819
vn -0.720685 -0.196543 0.664819
vn -0.656396 -0.745261 -0.117178
vn -0.656396 -0.745261 -0.117178
vn -0.656396 -0.745261 -0.117178
vn -0.517974 -0.654924 0.550252
vn -0.517974 -0.654924 0.550252
vn -0.517974 -0.654924 0.550252
vn -0.746329 0.216279 0.629457
vn -0.746329 0.216279 0.629457
vn -0.746329 0.216279 0.629457
vn 0.506481 0.180832 -0.843076
vn 0.506481 0.180832 -0.843076
vn 0.506481 0.180832 -0.843076
vn 0.962955 -0.269441 -0.0109455
vn 0.962955 -0.269441 -0.0109455
vn 0.962955 -0.269441 -0.0109455
vn -0.550912 0.828932 0.0967895
vn -0.550912 0.828932 0.0967895
vn -0.550912 0.828932 0.0967895
vn -0.464744 0.879808 -0.099754
vn -0.464744 0.879808 -0.099754
vn -0.464744 0.879808 -0.099754
vn -0.714488 0.37956 -0.587742
vn -0.714488 0.37956 -0.587742
vn -0.714488 0.37956 -0.587742
vn -0.97405 0.22628 0.00486948
vn -0.97405 0.22628 0.00486948
vn -0.97405 0.22628 0.00486948
vn -0.71446 0.379586 -0.587759
vn -0.71446 0.379586 -0.587759
vn -0.71446 0.379586 -0.587759
vn 0.974035 -0.226346 -0.00487331
vn 0.974035 -0.226346 -0.00487331
vn 0.974035 -0.226346 -0.00487331
vn 0.430078 0.561914 0.706602
vn 0.430078 0.561914 0.706602
vn 0.430078 0.561914 0.706602
vn 0.689553 0.715203 0.114018
vn 0.689553 0.715203 0.114018
vn 0.689553 0.715203 0.114018
vn 0.957531 0.281403 0.0628244
vn 0.957531 0.281403 0.0628244
vn 0.957531 0.281403 0.0628244
vn -0.475314 0.825629 0.303995
vn -0.475314 0.825629 0.303995
vn -0.475314 0.825629 0.303995
vn -0.282415 0.871734 0.400402
vn -0.282415 0.871734 0.400402
vn -0.282415 0.871734 0.400402
vn 0.287111 -0.950357 -0.119953
vn 0.287111 -0.950357 -0.119953
vn 0.287111 -0.950357 -0.119953
vn 0.74635 -0.216237 -0.629447
vn 0.74635 -0.216237 -0.629447
vn 0.74635 -0.216237 -0.629447
vn 0.164749 -0.355273 -0.92013
vn 0.164749 -0.355273 -0.92013
vn 0.164749 -0.355273 -0.92013
vn 0.506944 0.178275 -0.843342
vn 0.506944 0.178275 -0.843342
vn 0.506944 0.178275 -0.843342
vn 0.0458164 0.0670506 -0.996697
vn 0.0458164 0.0670506 -0.996697
vn 0.0458164 0.0670506 -0.996697
vn 0.16469 -0.355197 -0.92017
vn 0.16469 -0.355197 -0.92017
vn 0.16469 -0.355197 -0.92017
vn 0.691313 0.306422 -0.654363
vn 0.691313 0.306422 -0.654363
vn 0.691313 0.306422 -0.654363
vn -0.119656 0.586222 -0.801265
vn -0.119656 0.586222 -0.801265
vn -0.119656 0.586222 -0.801265
vn -0.461857 -0.725241 0.510602
vn -0.461857 -0.725241 0.510602
vn -0.461857 -0.725241 0.510602
vn -0.689587 -0.715175 -0.113994
vn -0.689587 -0.715175 -0.113994
vn -0.689587 -0.715175 -0.113994
vn -0.430043 -0.561909 -0.706626
vn -0.430043 -0.561909 -0.706626
vn -0.430043 -0.561909 -0.706626
vn -0.935423 -0.346334 -0.0709643
vn -0.935423 -0.346334 -0.0709643
vn -0.935423 -0.346334 -0.0709643
vn -0.689628 -0.715135 -0.113997
vn -0.689628 -0.715135 -0.113997
vn -0.689628 -0.715135 -0.113997
vn -0.651778 -0.415049 0.63476
vn -0.651778 -0.415049 0.63476
vn -0.651778 -0.415049 0.63476
vn -0.400481 -0.482367 0.779061
vn -0.400481 -0.482367 0.779061
vn -0.400481 -0.482367 0.779061
vn -0.935452 -0.346257 -0.0709681
vn -0.935452 -0.346257 -0.0709681
vn -0.935452 -0.346257 -0.0709681
vn -0.429992 -0.561915 -0.706653
vn -0.429992 -0.561915 -0.706653
vn -0.429992 -0.561915 -0.706653
vn -0.974036 0.226339 0.00486436
vn -0.974036 0.226339 0.00486436
vn -0.974036 0.226339 0.00486436
vn 0.746335 -0.216274 -0.629452
vn 0.746335 -0.216274 -0.629452
vn 0.746335 -0.216274 -0.629452
vn -0.461911 -0.725222 0.510578
vn -0.461911 -0.725222 0.510578
vn -0.461911 -0.725222 0.510578
vn 0.11968 -0.586214 0.801267
vn 0.11968 -0.586214 0.801267
vn 0.11968 -0.586214 0.801267
vn -0.669717 -0.0667152 -0.739614
vn -0.669717 -0.0667152 -0.739614
vn -0.669717 -0.0667152 -0.739614
vn 0.974045 -0.226302 -0.00487064
vn 0.974045 -0.226302 -0.00487064
vn 0.974045 -0.226302 -0.00487064
vn 0.427676 0.0622314 0.901787
vn 0.427676 0.0622314 0.901787
vn 0.427676 0.0622314 0.901787
vn -0.484422 -0.483271 -0.729236
vn -0.484422 -0.483271 -0.729236
vn -0.484422 -0.483271 -0.729236
vn -0.399573 -0.14893 -0.904522
vn -0.399573 -0.14893 -0.904522
vn -0.399573 -0.14893 -0.904522
vn 0.975076 0.215105 0.0543793
vn 0.975076 0.215105 0.0543793
vn 0.975076 0.215105 0.0543793
vn -0.44238 -0.0204381 -0.896595
vn -0.44238 -0.0204381 -0.896595
vn -0.44238 -0.0204381 -0.896595
vn -0.0147749 0.265211 -0.964077
vn -0.0147749 0.265211 -0.964077
vn -0.0147749 0.265211 -0.964077
vn -0.4743 0.096761 -0.87503
vn -0.4743 0.096761 -0.87503
vn -0.4743 0.096761 -0.87503
vn -0.581709 -0.306619 -0.753392
vn -0.581709 -0.306619 -0.753392
vn -0.581709 -0.306619 -0.753392
vn -0.356579 -0.257342 -0.898124
vn -0.356579 -0.257342 -0.898124
vn -0.356579 -0.257342 -0.898124
vn 0.131402 -0.619743 0.773726
vn 0.131402 -0.619743 0.773726
vn 0.131402 -0.619743 0.773726
vn -0.0259949 -0.132938 0.990783
vn -0.0259949 -0.132938 0.990783
vn -0.0259949 -0.132938 0.990783
vn 0.131302 -0.619767 0.773724
vn 0.131302 -0.619767 0.773724
vn 0.131302 -0.619767 0.773724

# Mesh '<STL_BINARY>' with 86 faces
g <STL_BINARY>
usemtl DefaultMaterial
f  1//1 2//2 3//3
f  4//4 5//5 6//6
f  7//7 8//8 9//9
f  10//10 11//11 12//12
f  13//13 14//14 15//15
f  16//16 17//17 18//18
f  19//19 20//20 21//21
f  22//22 23//23 24//24
f  25//25 26//26 27//27
f  28//28 29//29 30//30
f  31//31 32//32 33//33
f  34//34 35//35 36//36
f  37//37 38//38 39//39
f  40//40 41//41 42//42
f  43//43 44//44 45//45
f  46//46 47//47 48//48
f  49//49 50//50 51//51
f  52//52 53//53 54//54
f  55//55 56//56 57//57
f  58//58 59//59 60//60
f  61//61 62//62 63//63
f  64//64 65//65 66//66
f  67//67 68//68 69//69
f  70//70 71//71 72//72
f  73//73 74//74 75//75
f  76//76 77//77 78//78
f  79//79 80//80 81//81
f  82//82 83//83 84//84
f  85//85 86//86 87//87
f  88//88 89//89 90//90
f  91//91 92//92 93//93
f  94//94 95//95 96//96
f  97//97 98//98 99//99
f  100//100 101//101 102//102
f  103//103 104//104 105//105
f  106//106 107//107 108//108
f  109//109 110//110 111//111
f  112//112 113//113 114//114
f  115//115 116//116 117//117
f  118//118 119//119 120//120
f  121//121 122//122 123//123
f  124//124 125//125 126//126
f  127//127 128//128 129//129
f  130//130 131//131 132//132
f  133//133 134//134 135//135
f  136//136 137//137 138//138
f  139//139 140//140 141//141
f  142//142 143//143 144//144
f  145//145 146//146 147//147
f  148//148 149//149 150//150
f  151//151 152//152 153//153
f  154//154 155//155 156//156
f  157//157 158//158 159//159
f  160//160 161//161 162//162
f  163//163 164//164 165//165
f  166//166 167//167 168//168
f  169//169 170//170 171//171
f  172//172 173//173 174//174
f  175//175 176//176 177//177
f  178//178 179//179 180//180
f  181//181 182//182 183//183
f  184//184 185//185 186//186
f  187//187 188//188 189//189
f  190//190 191//191 192//192
f  193//193 194//194 195//195
f  196//196 197//197 198//198
f  199//199 200//200 201//201
f  202//202 203//203 204//204
f  205//205 206//206 207//207
f  208//208 209//209 210//210
f  211//211 212//212 213//213
f  214//214 215//215 216//216
f  217//217 218//218 219//219
f  220//220 221//221 222//222
f  223//223 224//224 225//225
f  226//226 227//227 228//228
f  229//229 230//230 231//231
f  232//232 233//233 234//234
f  235//235 236//236 237//237
f  238//238 239//239 240//240
f  241//241 242//242 243//243
f  244//244 245//245 246//246
f  247//247 248//248 249//249
f  250//250 251//251 252//252
f  253//253 254//254 255//255
f  256//256 257//257 258//258

