# File produced by Open Asset Import Library (http://www.assimp.sf.net)
# (assimp v3.0.1262)

mtllib nail-2.stl.obj.mtl

# 258 vertex positions
v  0.000701948 -0.0477299 0.00837538
v  0.00450091 -0.0400058 0.0243571
v  -0.00868555 -0.0404437 0.0220978
v  0.0132404 0.0547859 -0.00135401
v  0.00470142 0.0115072 0.00687906
v  0.01382 0.0109955 0.00375292
v  0.0247837 -0.0322173 0.000204295
v  0.0215292 -0.0290368 0.0185797
v  0.0154524 -0.0412862 0.0167677
v  0.0132404 0.0547859 -0.00135401
v  0.00347714 0.0559278 0.00541231
v  0.00470142 0.0115072 0.00687906
v  0.0151747 0.0528955 -0.0122755
v  0.0132404 0.0547859 -0.00135401
v  0.01382 0.0109955 0.00375292
v  0.00738768 0.0088816 -0.00828913
v  0.0148945 0.00994531 -0.00231436
v  0.017674 -0.020406 -0.000243932
v  0.00681667 0.0657874 -0.0159872
v  0.00488238 0.0676779 -0.00506571
v  0.0132404 0.0547859 -0.00135401
v  0.00681667 0.0657874 -0.0159872
v  0.0132404 0.0547859 -0.00135401
v  0.0151747 0.0528955 -0.0122755
v  0.0215292 -0.0290368 0.0185797
v  0.00450091 -0.0400058 0.0243571
v  0.0154524 -0.0412862 0.0167677
v  -0.00620122 0.0673099 -0.00696447
v  -0.0144686 0.0538652 -0.00610235
v  -0.00760646 0.0555592 0.00351355
v  -0.00620122 0.0673099 -0.00696447
v  -0.0125343 0.0519749 -0.0170229
v  -0.0144686 0.0538652 -0.00610235
v  -0.00760646 0.0555592 0.00351355
v  -0.0144686 0.0538652 -0.00610235
v  -0.0149669 0.0111287 0.00509092
v  0.00488238 0.0676779 -0.00506571
v  0.00347714 0.0559278 0.00541231
v  0.0132404 0.0547859 -0.00135401
v  -0.0141613 -0.0214635 -0.00569895
v  -0.00320979 -0.0227443 -0.0132892
v  -0.00475021 -0.0355242 -0.0182445
v  0.0138984 -0.0349044 -0.0150497
v  0.0177536 -0.0435356 0.0037739
v  0.0100568 -0.0454356 -0.0070112
v  0.000701948 -0.0477299 0.00837538
v  0.0100568 -0.0454356 -0.0070112
v  0.0177536 -0.0435356 0.0037739
v  -0.0164625 -0.0192144 0.00729391
v  -0.0141613 -0.0214635 -0.00569895
v  -0.0202381 -0.0337129 -0.00751093
v  -0.00320979 -0.0227443 -0.0132892
v  0.00997691 -0.0223063 -0.011029
v  0.0138984 -0.0349044 -0.0150497
v  0.0151747 0.0528955 -0.0122755
v  0.01382 0.0109955 0.00375292
v  0.0148945 0.00994531 -0.00231436
v  0.01382 0.0109955 0.00375292
v  0.00442128 -0.0168763 0.0203392
v  0.0153728 -0.0181571 0.0127499
v  0.0148945 0.00994531 -0.00231436
v  0.01382 0.0109955 0.00375292
v  0.0153728 -0.0181571 0.0127499
v  -0.00475021 -0.0355242 -0.0182445
v  0.0138984 -0.0349044 -0.0150497
v  0.0100568 -0.0454356 -0.0070112
v  -0.00277086 0.0508331 -0.0237902
v  0.00831275 0.0512015 -0.0218904
v  0.00738768 0.0088816 -0.00828913
v  0.00997691 -0.0223063 -0.011029
v  0.0247837 -0.0322173 0.000204295
v  0.0138984 -0.0349044 -0.0150497
v  -0.00620122 0.0673099 -0.00696447
v  -0.00426693 0.0654196 -0.0178869
v  -0.0125343 0.0519749 -0.0170229
v  -0.0126071 -0.0278452 0.0261175
v  -0.0163826 -0.0423438 0.0113127
v  -0.00868555 -0.0404437 0.0220978
v  -0.0117366 0.00797168 -0.0131481
v  -0.00320979 -0.0227443 -0.0132892
v  -0.0141613 -0.0214635 -0.00569895
v  0.0138984 -0.0349044 -0.0150497
v  0.0247837 -0.0322173 0.000204295
v  0.0177536 -0.0435356 0.0037739
v  0.0247837 -0.0322173 0.000204295
v  0.0154524 -0.0412862 0.0167677
v  0.0177536 -0.0435356 0.0037739
v  0.000701948 -0.0477299 0.00837538
v  0.0177536 -0.0435356 0.0037739
v  0.0154524 -0.0412862 0.0167677
v  0.0148945 0.00994531 -0.00231436
v  0.0153728 -0.0181571 0.0127499
v  0.017674 -0.020406 -0.000243932
v  -0.0144686 0.0538652 -0.00610235
v  -0.0125343 0.0519749 -0.0170229
v  -0.0117366 0.00797168 -0.0131481
v  0.0215292 -0.0290368 0.0185797
v  0.00604157 -0.0272257 0.0293133
v  0.00450091 -0.0400058 0.0243571
v  0.00442128 -0.0168763 0.0203392
v  -0.00876542 -0.0173145 0.01808
v  -0.0126071 -0.0278452 0.0261175
v  -0.00426693 0.0654196 -0.0178869
v  0.00488238 0.0676779 -0.00506571
v  0.00681667 0.0657874 -0.0159872
v  0.00738768 0.0088816 -0.00828913
v  0.017674 -0.020406 -0.000243932
v  0.00997691 -0.0223063 -0.011029
v  -0.00426693 0.0654196 -0.0178869
v  -0.00620122 0.0673099 -0.00696447
v  0.00488238 0.0676779 -0.00506571
v  -0.0126071 -0.0278452 0.0261175
v  -0.0234925 -0.0305321 0.0108645
v  -0.0163826 -0.0423438 0.0113127
v  0.000701948 -0.0477299 0.00837538
v  0.0154524 -0.0412862 0.0167677
v  0.00450091 -0.0400058 0.0243571
v  0.00488238 0.0676779 -0.00506571
v  -0.00620122 0.0673099 -0.00696447
v  -0.00760646 0.0555592 0.00351355
v  0.00488238 0.0676779 -0.00506571
v  -0.00760646 0.0555592 0.00351355
v  0.00347714 0.0559278 0.00541231
v  -0.00876542 -0.0173145 0.01808
v  -0.0164625 -0.0192144 0.00729391
v  -0.0234925 -0.0305321 0.0108645
v  -0.0234925 -0.0305321 0.0108645
v  -0.0140814 -0.0445928 -0.00168112
v  -0.0163826 -0.0423438 0.0113127
v  -0.0149669 0.0111287 0.00509092
v  -0.0141613 -0.0214635 -0.00569895
v  -0.0164625 -0.0192144 0.00729391
v  -0.00876542 -0.0173145 0.01808
v  -0.0234925 -0.0305321 0.0108645
v  -0.0126071 -0.0278452 0.0261175
v  -0.0234925 -0.0305321 0.0108645
v  -0.0202381 -0.0337129 -0.00751093
v  -0.0140814 -0.0445928 -0.00168112
v  -0.00745697 0.0121891 0.0110466
v  -0.0164625 -0.0192144 0.00729391
v  -0.00876542 -0.0173145 0.01808
v  0.00470142 0.0115072 0.00687906
v  -0.00745697 0.0121891 0.0110466
v  -0.00876542 -0.0173145 0.01808
v  0.00470142 0.0115072 0.00687906
v  -0.00876542 -0.0173145 0.01808
v  0.00442128 -0.0168763 0.0203392
v  -0.0125343 0.0519749 -0.0170229
v  -0.00262113 0.00746301 -0.0162561
v  -0.0117366 0.00797168 -0.0131481
v  -0.0164625 -0.0192144 0.00729391
v  -0.0202381 -0.0337129 -0.00751093
v  -0.0234925 -0.0305321 0.0108645
v  0.00997691 -0.0223063 -0.011029
v  0.017674 -0.020406 -0.000243932
v  0.0247837 -0.0322173 0.000204295
v  -0.00262113 0.00746301 -0.0162561
v  0.00738768 0.0088816 -0.00828913
v  0.00997691 -0.0223063 -0.011029
v  -0.0117366 0.00797168 -0.0131481
v  -0.00262113 0.00746301 -0.0162561
v  -0.00320979 -0.0227443 -0.0132892
v  -0.00262113 0.00746301 -0.0162561
v  0.00997691 -0.0223063 -0.011029
v  -0.00320979 -0.0227443 -0.0132892
v  -0.0125343 0.0519749 -0.0170229
v  -0.00277086 0.0508331 -0.0237902
v  -0.00262113 0.00746301 -0.0162561
v  0.000701948 -0.0477299 0.00837538
v  -0.0163826 -0.0423438 0.0113127
v  -0.0140814 -0.0445928 -0.00168112
v  0.000701948 -0.0477299 0.00837538
v  -0.0140814 -0.0445928 -0.00168112
v  -0.00312992 -0.0458736 -0.00927141
v  0.000701948 -0.0477299 0.00837538
v  -0.00312992 -0.0458736 -0.00927141
v  0.0100568 -0.0454356 -0.0070112
v  -0.00277086 0.0508331 -0.0237902
v  0.00738768 0.0088816 -0.00828913
v  -0.00262113 0.00746301 -0.0162561
v  0.0153728 -0.0181571 0.0127499
v  0.00604157 -0.0272257 0.0293133
v  0.0215292 -0.0290368 0.0185797
v  0.017674 -0.020406 -0.000243932
v  0.0215292 -0.0290368 0.0185797
v  0.0247837 -0.0322173 0.000204295
v  0.000701948 -0.0477299 0.00837538
v  -0.00868555 -0.0404437 0.0220978
v  -0.0163826 -0.0423438 0.0113127
v  0.017674 -0.020406 -0.000243932
v  0.0153728 -0.0181571 0.0127499
v  0.0215292 -0.0290368 0.0185797
v  -0.00320979 -0.0227443 -0.0132892
v  0.0138984 -0.0349044 -0.0150497
v  -0.00475021 -0.0355242 -0.0182445
v  -0.0144686 0.0538652 -0.00610235
v  -0.0117366 0.00797168 -0.0131481
v  -0.0149669 0.0111287 0.00509092
v  -0.00760646 0.0555592 0.00351355
v  -0.0149669 0.0111287 0.00509092
v  -0.00745697 0.0121891 0.0110466
v  0.00442128 -0.0168763 0.0203392
v  -0.0126071 -0.0278452 0.0261175
v  0.00604157 -0.0272257 0.0293133
v  -0.00426693 0.0654196 -0.0178869
v  -0.00277086 0.0508331 -0.0237902
v  -0.0125343 0.0519749 -0.0170229
v  -0.00475021 -0.0355242 -0.0182445
v  0.0100568 -0.0454356 -0.0070112
v  -0.00312992 -0.0458736 -0.00927141
v  -0.0202381 -0.0337129 -0.00751093
v  -0.00312992 -0.0458736 -0.00927141
v  -0.0140814 -0.0445928 -0.00168112
v  0.00604157 -0.0272257 0.0293133
v  -0.0126071 -0.0278452 0.0261175
v  -0.00868555 -0.0404437 0.0220978
v  0.01382 0.0109955 0.00375292
v  0.00470142 0.0115072 0.00687906
v  0.00442128 -0.0168763 0.0203392
v  -0.0202381 -0.0337129 -0.00751093
v  -0.00475021 -0.0355242 -0.0182445
v  -0.00312992 -0.0458736 -0.00927141
v  0.0153728 -0.0181571 0.0127499
v  0.00442128 -0.0168763 0.0203392
v  0.00604157 -0.0272257 0.0293133
v  0.00681667 0.0657874 -0.0159872
v  0.0151747 0.0528955 -0.0122755
v  0.00831275 0.0512015 -0.0218904
v  0.00604157 -0.0272257 0.0293133
v  -0.00868555 -0.0404437 0.0220978
v  0.00450091 -0.0400058 0.0243571
v  -0.0141613 -0.0214635 -0.00569895
v  -0.00475021 -0.0355242 -0.0182445
v  -0.0202381 -0.0337129 -0.00751093
v  -0.00426693 0.0654196 -0.0178869
v  0.00681667 0.0657874 -0.0159872
v  0.00831275 0.0512015 -0.0218904
v  -0.0149669 0.0111287 0.00509092
v  -0.0117366 0.00797168 -0.0131481
v  -0.0141613 -0.0214635 -0.00569895
v  -0.00426693 0.0654196 -0.0178869
v  0.00831275 0.0512015 -0.0218904
v  -0.00277086 0.0508331 -0.0237902
v  0.00347714 0.0559278 0.00541231
v  -0.00745697 0.0121891 0.0110466
v  0.00470142 0.0115072 0.00687906
v  0.00831275 0.0512015 -0.0218904
v  0.0151747 0.0528955 -0.0122755
v  0.0148945 0.00994531 -0.00231436
v  0.00347714 0.0559278 0.00541231
v  -0.00760646 0.0555592 0.00351355
v  -0.00745697 0.0121891 0.0110466
v  0.00831275 0.0512015 -0.0218904
v  0.0148945 0.00994531 -0.00231436
v  0.00738768 0.0088816 -0.00828913
v  -0.00745697 0.0121891 0.0110466
v  -0.0149669 0.0111287 0.00509092
v  -0.0164625 -0.0192144 0.00729391

# 0 UV coordinates

# 258 vertex normals
vn -0.0462727 -0.89504 0.443578
vn -0.0462727 -0.89504 0.443578
vn -0.0462727 -0.89504 0.443578
vn 0.327903 0.113715 0.937843
vn 0.327903 0.113715 0.937843
vn 0.327903 0.113715 0.937843
vn 0.857445 -0.459602 0.231416
vn 0.857445 -0.459602 0.231416
vn 0.857445 -0.459602 0.231416
vn 0.572455 0.0428117 0.818818
vn 0.572455 0.0428117 0.818818
vn 0.572455 0.0428117 0.818818
vn 0.985107 0.0327251 0.168802
vn 0.985107 0.0327251 0.168802
vn 0.985107 0.0327251 0.168802
vn 0.622444 0.00360667 -0.782656
vn 0.622444 0.00360667 -0.782656
vn 0.622444 0.00360667 -0.782656
vn 0.831168 0.553644 0.0513719
vn 0.831168 0.553644 0.0513719
vn 0.831168 0.553644 0.0513719
vn 0.831161 0.553654 0.0513676
vn 0.831161 0.553654 0.0513676
vn 0.831161 0.553654 0.0513676
vn 0.501184 -0.364713 0.784729
vn 0.501184 -0.364713 0.784729
vn 0.501184 -0.364713 0.784729
vn -0.748484 0.488951 0.447994
vn -0.748484 0.488951 0.447994
vn -0.748484 0.488951 0.447994
vn -0.834781 0.498326 -0.234119
vn -0.834781 0.498326 -0.234119
vn -0.834781 0.498326 -0.234119
vn -0.816866 0.155045 0.5556
vn -0.816866 0.155045 0.5556
vn -0.816866 0.155045 0.5556
vn 0.523694 0.531245 0.665975
vn 0.523694 0.531245 0.665975
vn 0.523694 0.531245 0.665975
vn -0.501208 0.36466 -0.784738
vn -0.501208 0.36466 -0.784738
vn -0.501208 0.36466 -0.784738
vn 0.712392 -0.571145 -0.407789
vn 0.712392 -0.571145 -0.407789
vn 0.712392 -0.571145 -0.407789
vn 0.238995 -0.971021 0.000536029
vn 0.238995 -0.971021 0.000536029
vn 0.238995 -0.971021 0.000536029
vn -0.857445 0.459598 -0.231426
vn -0.857445 0.459598 -0.231426
vn -0.857445 0.459598 -0.231426
vn 0.147712 0.342114 -0.927976
vn 0.147712 0.342114 -0.927976
vn 0.147712 0.342114 -0.927976
vn 0.985107 0.0327251 0.168802
vn 0.985107 0.0327251 0.168802
vn 0.985107 0.0327232 0.168798
vn 0.569585 0.26994 0.776341
vn 0.569585 0.26994 0.776341
vn 0.569585 0.26994 0.776341
vn 0.982516 0.100684 0.156603
vn 0.982516 0.100684 0.156603
vn 0.982516 0.100684 0.156603
vn 0.151016 -0.634019 -0.758429
vn 0.151016 -0.634019 -0.758429
vn 0.151016 -0.634019 -0.758429
vn 0.170685 -0.304865 -0.936976
vn 0.170685 -0.304865 -0.936976
vn 0.170685 -0.304865 -0.936976
vn 0.709029 0.40498 -0.577295
vn 0.709029 0.40498 -0.577295
vn 0.709029 0.40498 -0.577295
vn -0.834812 0.498289 -0.234088
vn -0.834812 0.498289 -0.234088
vn -0.834812 0.498289 -0.234088
vn -0.709029 -0.4049 0.577351
vn -0.709029 -0.4049 0.577351
vn -0.709029 -0.4049 0.577351
vn -0.574945 -0.155904 -0.803201
vn -0.574945 -0.155904 -0.803201
vn -0.574945 -0.155904 -0.803201
vn 0.712406 -0.571128 -0.407786
vn 0.712406 -0.571128 -0.407786
vn 0.712406 -0.571128 -0.407786
vn 0.857453 -0.459593 0.231408
vn 0.857453 -0.459593 0.231408
vn 0.857453 -0.459593 0.231408
vn 0.287107 -0.934027 0.212516
vn 0.287107 -0.934027 0.212516
vn 0.287107 -0.934027 0.212516
vn 0.982523 0.100657 0.156581
vn 0.982523 0.100657 0.156581
vn 0.982523 0.100657 0.156581
vn -0.985103 -0.0327327 -0.16882
vn -0.985103 -0.0327327 -0.16882
vn -0.985103 -0.0327327 -0.16882
vn 0.501193 -0.364732 0.784714
vn 0.501193 -0.364732 0.784714
vn 0.501193 -0.364732 0.784714
vn -0.151011 0.633991 0.758453
vn -0.151011 0.633991 0.758453
vn -0.151011 0.633991 0.758453
vn -0.00336946 0.985236 -0.171166
vn -0.00336946 0.985236 -0.171166
vn -0.00336946 0.985236 -0.171166
vn 0.798295 0.118156 -0.590563
vn 0.798295 0.118156 -0.590563
vn 0.798295 0.118156 -0.590563
vn -0.00339312 0.985251 -0.171079
vn -0.00339312 0.985251 -0.171079
vn -0.00339312 0.985251 -0.171079
vn -0.709052 -0.40487 0.577344
vn -0.709052 -0.40487 0.577344
vn -0.709052 -0.40487 0.577344
vn 0.168929 -0.902547 0.39607
vn 0.168929 -0.902547 0.39607
vn 0.168929 -0.902547 0.39607
vn -0.147136 0.66804 0.729434
vn -0.147136 0.66804 0.729434
vn -0.147136 0.66804 0.729434
vn -0.147179 0.66806 0.729406
vn -0.147179 0.66806 0.729406
vn -0.147179 0.66806 0.729406
vn -0.712398 0.571144 0.40778
vn -0.712398 0.571144 0.40778
vn -0.712398 0.571144 0.40778
vn -0.854091 -0.516431 -0.0618663
vn -0.854091 -0.516431 -0.0618663
vn -0.854091 -0.516431 -0.0618663
vn -0.982991 0.0353704 -0.180215
vn -0.982991 0.0353704 -0.180215
vn -0.982991 0.0353704 -0.180215
vn -0.712399 0.571119 0.407811
vn -0.712399 0.571119 0.407811
vn -0.712399 0.571119 0.407811
vn -0.854075 -0.516459 -0.0618594
vn -0.854075 -0.516459 -0.0618594
vn -0.854075 -0.516459 -0.0618594
vn -0.81619 0.167989 0.552824
vn -0.81619 0.167989 0.552824
vn -0.81619 0.167989 0.552824
vn 0.327648 0.205324 0.92222
vn 0.327648 0.205324 0.92222
vn 0.327648 0.205324 0.92222
vn -0.166631 0.423853 0.890271
vn -0.166631 0.423853 0.890271
vn -0.166631 0.423853 0.890271
vn -0.325824 -0.0887925 -0.941252
vn -0.325824 -0.0887925 -0.941252
vn -0.325824 -0.0887925 -0.941252
vn -0.857449 0.459599 -0.231409
vn -0.857449 0.459599 -0.231409
vn -0.857449 0.459599 -0.231409
vn 0.709036 0.404877 -0.577358
vn 0.709036 0.404877 -0.577358
vn 0.709036 0.404877 -0.577358
vn 0.607915 0.119428 -0.784969
vn 0.607915 0.119428 -0.784969
vn 0.607915 0.119428 -0.784969
vn -0.325833 -0.0861216 -0.941497
vn -0.325833 -0.0861216 -0.941497
vn -0.325833 -0.0861216 -0.941497
vn 0.171307 -0.0996079 -0.980169
vn 0.171307 -0.0996079 -0.980169
vn 0.171307 -0.0996079 -0.980169
vn -0.575064 -0.141951 -0.805699
vn -0.575064 -0.141951 -0.805699
vn -0.575064 -0.141951 -0.805699
vn -0.280598 -0.952882 0.115243
vn -0.280598 -0.952882 0.115243
vn -0.280598 -0.952882 0.115243
vn -0.162439 -0.984353 -0.0682789
vn -0.162439 -0.984353 -0.0682789
vn -0.162439 -0.984353 -0.0682789
vn 0.0527929 -0.991869 -0.115797
vn 0.0527929 -0.991869 -0.115797
vn 0.0527929 -0.991869 -0.115797
vn 0.628717 -0.130988 -0.766523
vn 0.628717 -0.130988 -0.766523
vn 0.628717 -0.130988 -0.766523
vn 0.497834 0.611343 0.615159
vn 0.497834 0.611343 0.615159
vn 0.497834 0.611343 0.615159
vn 0.854083 0.516443 0.0618756
vn 0.854083 0.516443 0.0618756
vn 0.854083 0.516443 0.0618756
vn -0.232469 -0.915888 0.327274
vn -0.232469 -0.915888 0.327274
vn -0.232469 -0.915888 0.327274
vn 0.854083 0.516443 0.0618756
vn 0.85408 0.516448 0.061881
vn 0.854083 0.516443 0.0618756
vn 0.147592 0.342053 -0.928017
vn 0.147592 0.342053 -0.928017
vn 0.147592 0.342053 -0.928017
vn -0.985106 -0.0327164 -0.168809
vn -0.985106 -0.0327164 -0.168809
vn -0.985106 -0.0327164 -0.168809
vn -0.627283 0.131174 0.767665
vn -0.627283 0.131174 0.767665
vn -0.627283 0.131174 0.767665
vn -0.151032 0.633992 0.758448
vn -0.151032 0.633992 0.758448
vn -0.151032 0.633992 0.758448
vn -0.526504 0.271987 -0.805491
vn -0.526504 0.271987 -0.805491
vn -0.526504 0.271987 -0.805491
vn 0.151028 -0.633953 -0.758482
vn 0.151028 -0.633953 -0.758482
vn 0.151028 -0.633953 -0.758482
vn -0.497821 -0.611351 -0.615162
vn -0.497821 -0.611351 -0.615162
vn -0.497821 -0.611351 -0.615162
vn -0.147679 -0.342057 0.928002
vn -0.147679 -0.342057 0.928002
vn -0.147679 -0.342057 0.928002
vn 0.316891 0.403829 0.858197
vn 0.316891 0.403829 0.858197
vn 0.316891 0.403829 0.858197
vn -0.497836 -0.611307 -0.615194
vn -0.497836 -0.611307 -0.615194
vn -0.497836 -0.611307 -0.615194
vn 0.497819 0.611347 0.615168
vn 0.497819 0.611347 0.615168
vn 0.497819 0.611347 0.615168
vn 0.745673 0.314293 -0.58753
vn 0.745673 0.314293 -0.58753
vn 0.745673 0.314293 -0.58753
vn -0.147646 -0.342096 0.927993
vn -0.147646 -0.342096 0.927993
vn -0.147646 -0.342096 0.927993
vn -0.501191 0.364707 -0.784727
vn -0.501191 0.364707 -0.784727
vn -0.501191 0.364707 -0.784727
vn 0.143579 0.383897 -0.912145
vn 0.143579 0.383897 -0.912145
vn 0.143579 0.383897 -0.912145
vn -0.98299 0.0353532 -0.180225
vn -0.98299 0.0353532 -0.180225
vn -0.98299 0.0353532 -0.180225
vn 0.143596 0.383878 -0.91215
vn 0.143596 0.383878 -0.91215
vn 0.143596 0.383878 -0.91215
vn 0.325997 0.040171 0.944517
vn 0.325997 0.040171 0.944517
vn 0.325997 0.040171 0.944517
vn 0.817608 -0.135137 -0.559693
vn 0.817608 -0.135137 -0.559693
vn 0.817608 -0.135137 -0.559693
vn -0.171917 0.168005 0.97068
vn -0.171917 0.168005 0.97068
vn -0.171917 0.168005 0.97068
vn 0.624304 -0.251362 -0.739636
vn 0.624304 -0.251362 -0.739636
vn 0.624304 -0.251362 -0.739636
vn -0.626452 0.0871241 0.774576
vn -0.626452 0.0871241 0.774576
vn -0.626452 0.0871241 0.774576

# Mesh '<STL_BINARY>' with 86 faces
g <STL_BINARY>
usemtl DefaultMaterial
f  1//1 2//2 3//3
f  4//4 5//5 6//6
f  7//7 8//8 9//9
f  10//10 11//11 12//12
f  13//13 14//14 15//15
f  16//16 17//17 18//18
f  19//19 20//20 21//21
f  22//22 23//23 24//24
f  25//25 26//26 27//27
f  28//28 29//29 30//30
f  31//31 32//32 33//33
f  34//34 35//35 36//36
f  37//37 38//38 39//39
f  40//40 41//41 42//42
f  43//43 44//44 45//45
f  46//46 47//47 48//48
f  49//49 50//50 51//51
f  52//52 53//53 54//54
f  55//55 56//56 57//57
f  58//58 59//59 60//60
f  61//61 62//62 63//63
f  64//64 65//65 66//66
f  67//67 68//68 69//69
f  70//70 71//71 72//72
f  73//73 74//74 75//75
f  76//76 77//77 78//78
f  79//79 80//80 81//81
f  82//82 83//83 84//84
f  85//85 86//86 87//87
f  88//88 89//89 90//90
f  91//91 92//92 93//93
f  94//94 95//95 96//96
f  97//97 98//98 99//99
f  100//100 101//101 102//102
f  103//103 104//104 105//105
f  106//106 107//107 108//108
f  109//109 110//110 111//111
f  112//112 113//113 114//114
f  115//115 116//116 117//117
f  118//118 119//119 120//120
f  121//121 122//122 123//123
f  124//124 125//125 126//126
f  127//127 128//128 129//129
f  130//130 131//131 132//132
f  133//133 134//134 135//135
f  136//136 137//137 138//138
f  139//139 140//140 141//141
f  142//142 143//143 144//144
f  145//145 146//146 147//147
f  148//148 149//149 150//150
f  151//151 152//152 153//153
f  154//154 155//155 156//156
f  157//157 158//158 159//159
f  160//160 161//161 162//162
f  163//163 164//164 165//165
f  166//166 167//167 168//168
f  169//169 170//170 171//171
f  172//172 173//173 174//174
f  175//175 176//176 177//177
f  178//178 179//179 180//180
f  181//181 182//182 183//183
f  184//184 185//185 186//186
f  187//187 188//188 189//189
f  190//190 191//191 192//192
f  193//193 194//194 195//195
f  196//196 197//197 198//198
f  199//199 200//200 201//201
f  202//202 203//203 204//204
f  205//205 206//206 207//207
f  208//208 209//209 210//210
f  211//211 212//212 213//213
f  214//214 215//215 216//216
f  217//217 218//218 219//219
f  220//220 221//221 222//222
f  223//223 224//224 225//225
f  226//226 227//227 228//228
f  229//229 230//230 231//231
f  232//232 233//233 234//234
f  235//235 236//236 237//237
f  238//238 239//239 240//240
f  241//241 242//242 243//243
f  244//244 245//245 246//246
f  247//247 248//248 249//249
f  250//250 251//251 252//252
f  253//253 254//254 255//255
f  256//256 257//257 258//258

