solid 
facet normal 0.810271143913 0.533209502697 -0.243204236031
outer loop
vertex -4.28583923906e-09 0.0753347575665 -0.0247749984264
vertex -0.018071020022 0.114095896482 -5.20301857154e-11
vertex -4.28583923906e-09 0.0866349637508 -5.20301857154e-11
endloop
endfacet
facet normal -0.810271084309 0.533209681511 -0.243204057217
outer loop
vertex 0.0157139189541 0.0992138087749 -0.0247749984264
vertex -4.28583923906e-09 0.0753347575665 -0.0247749984264
vertex -4.28583923906e-09 0.0866349637508 -5.20301857154e-11
endloop
endfacet
facet normal 0.810271382332 0.533209145069 -0.243204176426
outer loop
vertex -4.28583923906e-09 0.0753347575665 -0.0247749984264
vertex -0.0157139282674 0.0992138087749 -0.0247749984264
vertex -0.018071020022 0.114095896482 -5.20301857154e-11
endloop
endfacet
facet normal 0.0 0.0 -1.0
outer loop
vertex 0.0232797190547 0.0716476142406 -0.0247749984264
vertex -4.28583923906e-09 0.0753347575665 -0.0247749984264
vertex 0.0157139189541 0.0992138087749 -0.0247749984264
endloop
endfacet
facet normal 0.0 0.0 -1.0
outer loop
vertex -4.28583923906e-09 0.0753347575665 -0.0247749984264
vertex -0.0232797097415 -0.0716475844383 -0.0247749984264
vertex -0.0232797283679 0.0716476142406 -0.0247749984264
endloop
endfacet
facet normal 0.0 0.0 -1.0
outer loop
vertex -4.28583923906e-09 0.0753347575665 -0.0247749984264
vertex -0.0232797283679 0.0716476142406 -0.0247749984264
vertex -0.0157139282674 0.0992138087749 -0.0247749984264
endloop
endfacet
facet normal 0.0 0.0 -1.0
outer loop
vertex 0.0232797190547 0.0716476142406 -0.0247749984264
vertex -0.0232797097415 -0.0716475844383 -0.0247749984264
vertex -4.28583923906e-09 0.0753347575665 -0.0247749984264
endloop
endfacet
facet normal 0.810271382332 0.533209264278 0.243203863502
outer loop
vertex -4.28583923906e-09 0.0866349637508 -5.20301857154e-11
vertex -0.0157139282674 0.0992138087749 0.0247749984264
vertex -4.28583923906e-09 0.0753347575665 0.0247749984264
endloop
endfacet
facet normal -0.810271561146 0.533209383488 0.243203088641
outer loop
vertex 0.0180710069835 0.114095896482 -5.20301857154e-11
vertex -4.28583923906e-09 0.0866349637508 -5.20301857154e-11
vertex -4.28583923906e-09 0.0753347575665 0.0247749984264
endloop
endfacet
facet normal 0.0 0.0 1.0
outer loop
vertex 0.0232797190547 0.0716476142406 0.0247749984264
vertex 0.0157139189541 0.0992138087749 0.0247749984264
vertex -4.28583923906e-09 0.0753347575665 0.0247749984264
endloop
endfacet
facet normal -0.810270488262 0.533209502697 0.243206530809
outer loop
vertex 0.0180710069835 0.114095896482 -5.20301857154e-11
vertex -4.28583923906e-09 0.0753347575665 0.0247749984264
vertex 0.0157139189541 0.0992138087749 0.0247749984264
endloop
endfacet
facet normal 0.0 0.0 1.0
outer loop
vertex -4.28583923906e-09 0.0753347575665 0.0247749984264
vertex -0.0232797283679 0.0716476142406 0.0247749984264
vertex -0.0232797097415 -0.0716475844383 0.0247749984264
endloop
endfacet
facet normal 0.0 0.0 1.0
outer loop
vertex -4.28583923906e-09 0.0753347575665 0.0247749984264
vertex -0.0157139282674 0.0992138087749 0.0247749984264
vertex -0.0232797283679 0.0716476142406 0.0247749984264
endloop
endfacet
facet normal 0.0 0.0 1.0
outer loop
vertex 0.0232797190547 0.0716476142406 0.0247749984264
vertex -4.28583923906e-09 0.0753347575665 0.0247749984264
vertex -0.0232797097415 -0.0716475844383 0.0247749984264
endloop
endfacet
facet normal 0.810271143913 0.533209323883 0.243204519153
outer loop
vertex -4.28583923906e-09 0.0866349637508 -5.20301857154e-11
vertex -0.018071020022 0.114095896482 -5.20301857154e-11
vertex -0.0157139282674 0.0992138087749 0.0247749984264
endloop
endfacet
facet normal -0.810271322727 0.533208787441 -0.243205085397
outer loop
vertex 0.0157139189541 0.0992138087749 -0.0247749984264
vertex -4.28583923906e-09 0.0866349637508 -5.20301857154e-11
vertex 0.0180710069835 0.114095896482 -5.20301857154e-11
endloop
endfacet
facet normal 0.810271024704 -0.533209264278 -0.243205145001
outer loop
vertex -0.0157139133662 -0.0992138385773 -0.0247749984264
vertex 8.75267680556e-09 -0.0753347873688 -0.0247749984264
vertex 1.06153219548e-08 -0.0866349339485 -5.20301857154e-11
endloop
endfacet
facet normal -0.810271680355 -0.533209323883 -0.243202954531
outer loop
vertex 8.75267680556e-09 -0.0753347873688 -0.0247749984264
vertex 0.0180710293353 -0.11409586668 -5.20301857154e-11
vertex 1.06153219548e-08 -0.0866349339485 -5.20301857154e-11
endloop
endfacet
facet normal 0.810271501541 -0.533209502697 0.243203163147
outer loop
vertex -0.0180709976703 -0.11409586668 -5.20301857154e-11
vertex 1.06153219548e-08 -0.0866349339485 -5.20301857154e-11
vertex 8.75267680556e-09 -0.0753347873688 0.0247749984264
endloop
endfacet
facet normal -0.810271143913 -0.533210158348 0.243202909827
outer loop
vertex 1.06153219548e-08 -0.0866349339485 -5.20301857154e-11
vertex 0.0157139375806 -0.0992138385773 0.0247749984264
vertex 8.75267680556e-09 -0.0753347873688 0.0247749984264
endloop
endfacet
facet normal 0.81027173996 -0.533209145069 -0.243202984333
outer loop
vertex -0.0157139133662 -0.0992138385773 -0.0247749984264
vertex 1.06153219548e-08 -0.0866349339485 -5.20301857154e-11
vertex -0.0180709976703 -0.11409586668 -5.20301857154e-11
endloop
endfacet
facet normal -0.810271382332 -0.53320980072 0.243202671409
outer loop
vertex 1.06153219548e-08 -0.0866349339485 -5.20301857154e-11
vertex 0.0180710293353 -0.11409586668 -5.20301857154e-11
vertex 0.0157139375806 -0.0992138385773 0.0247749984264
endloop
endfacet
facet normal 0.0 0.0 -1.0
outer loop
vertex 8.75267680556e-09 -0.0753347873688 -0.0247749984264
vertex 0.0232797320932 -0.0716475844383 -0.0247749984264
vertex 0.0157139375806 -0.0992138385773 -0.0247749984264
endloop
endfacet
facet normal -0.810271501541 -0.533209860325 -0.243202194571
outer loop
vertex 8.75267680556e-09 -0.0753347873688 -0.0247749984264
vertex 0.0157139375806 -0.0992138385773 -0.0247749984264
vertex 0.0180710293353 -0.11409586668 -5.20301857154e-11
endloop
endfacet
facet normal 0.0 0.0 -1.0
outer loop
vertex 8.75267680556e-09 -0.0753347873688 -0.0247749984264
vertex -0.0232797097415 -0.0716475844383 -0.0247749984264
vertex 0.0232797320932 -0.0716475844383 -0.0247749984264
endloop
endfacet
facet normal 0.0 0.0 -1.0
outer loop
vertex -0.0232797097415 -0.0716475844383 -0.0247749984264
vertex 8.75267680556e-09 -0.0753347873688 -0.0247749984264
vertex -0.0157139133662 -0.0992138385773 -0.0247749984264
endloop
endfacet
facet normal 0.810270667076 -0.533209681511 0.243205308914
outer loop
vertex -0.0180709976703 -0.11409586668 -5.20301857154e-11
vertex 8.75267680556e-09 -0.0753347873688 0.0247749984264
vertex -0.0157139133662 -0.0992138385773 0.0247749984264
endloop
endfacet
facet normal 0.0 0.0 1.0
outer loop
vertex 8.75267680556e-09 -0.0753347873688 0.0247749984264
vertex 0.0157139375806 -0.0992138385773 0.0247749984264
vertex 0.0232797320932 -0.0716475844383 0.0247749984264
endloop
endfacet
facet normal 0.0 0.0 1.0
outer loop
vertex 8.75267680556e-09 -0.0753347873688 0.0247749984264
vertex 0.0232797320932 -0.0716475844383 0.0247749984264
vertex -0.0232797097415 -0.0716475844383 0.0247749984264
endloop
endfacet
facet normal 0.0 0.0 1.0
outer loop
vertex -0.0232797097415 -0.0716475844383 0.0247749984264
vertex -0.0157139133662 -0.0992138385773 0.0247749984264
vertex 8.75267680556e-09 -0.0753347873688 0.0247749984264
endloop
endfacet
facet normal 0.757500290871 -0.605841994286 -0.243205174804
outer loop
vertex 0.0716476142406 0.0232797246426 -0.0247749984264
vertex 0.10292737931 0.052444126457 -5.20301857154e-11
vertex 0.0823947638273 0.0267716925591 -5.20301857154e-11
endloop
endfacet
facet normal 0.757500708103 -0.605843007565 -0.243201524019
outer loop
vertex 0.0716476142406 0.0232797246426 -0.0247749984264
vertex 0.0895020738244 0.0456035993993 -0.0247749984264
vertex 0.10292737931 0.052444126457 -5.20301857154e-11
endloop
endfacet
facet normal 0.757499873638 -0.605843245983 0.243203356862
outer loop
vertex 0.0823947638273 0.0267716925591 -5.20301857154e-11
vertex 0.10292737931 0.052444126457 -5.20301857154e-11
vertex 0.0895020738244 0.0456035993993 0.0247749984264
endloop
endfacet
facet normal -0.0448904670775 0.968936145306 0.243202760816
outer loop
vertex 0.10292737931 0.052444126457 -5.20301857154e-11
vertex 0.0700891688466 0.0509227477014 -5.20301857154e-11
vertex 0.0609471052885 0.0442806743085 0.0247749984264
endloop
endfacet
facet normal -0.0448898859322 0.968936145306 0.24320282042
outer loop
vertex 0.10292737931 0.052444126457 -5.20301857154e-11
vertex 0.0609471052885 0.0442806743085 0.0247749984264
vertex 0.0895020738244 0.0456035993993 0.0247749984264
endloop
endfacet
facet normal -0.0448904074728 0.968936562538 -0.243201136589
outer loop
vertex 0.0895020738244 0.0456035993993 -0.0247749984264
vertex 0.0700891688466 0.0509227477014 -5.20301857154e-11
vertex 0.10292737931 0.052444126457 -5.20301857154e-11
endloop
endfacet
facet normal -0.935384631157 0.256724506617 0.243203893304
outer loop
vertex -0.018071020022 0.114095896482 -5.20301857154e-11
vertex -0.0267716851085 0.0823947787285 -5.20301857154e-11
vertex -0.0232797283679 0.0716476142406 0.0247749984264
endloop
endfacet
facet normal -0.935384273529 0.256724834442 -0.243204772472
outer loop
vertex -0.0157139282674 0.0992138087749 -0.0247749984264
vertex -0.0267716851085 0.0823947787285 -5.20301857154e-11
vertex -0.018071020022 0.114095896482 -5.20301857154e-11
endloop
endfacet
facet normal -0.935384213924 0.256725221872 0.243204817176
outer loop
vertex -0.018071020022 0.114095896482 -5.20301857154e-11
vertex -0.0232797283679 0.0716476142406 0.0247749984264
vertex -0.0157139282674 0.0992138087749 0.0247749984264
endloop
endfacet
facet normal 0.757499933243 0.605843544006 0.243202358484
outer loop
vertex 0.102927394211 -0.0524441041052 -5.20301857154e-11
vertex 0.0823947638273 -0.0267716664821 -5.20301857154e-11
vertex 0.0716476216912 -0.0232796985656 0.0247749984264
endloop
endfacet
facet normal 0.757499575615 0.605842888355 0.243205294013
outer loop
vertex 0.102927394211 -0.0524441041052 -5.20301857154e-11
vertex 0.0716476216912 -0.0232796985656 0.0247749984264
vertex 0.0895020887256 -0.0456035770476 0.0247749984264
endloop
endfacet
facet normal 0.757500231266 0.605842888355 -0.243203297257
outer loop
vertex 0.0895020887256 -0.0456035770476 -0.0247749984264
vertex 0.0823947638273 -0.0267716664821 -5.20301857154e-11
vertex 0.102927394211 -0.0524441041052 -5.20301857154e-11
endloop
endfacet
facet normal -0.0448894277215 -0.968936085701 -0.243203312159
outer loop
vertex 0.0609471090138 -0.0442806519568 -0.0247749984264
vertex 0.102927394211 -0.0524441041052 -5.20301857154e-11
vertex 0.0700891762972 -0.050922755152 -5.20301857154e-11
endloop
endfacet
facet normal -0.0448900423944 -0.968936145306 -0.24320282042
outer loop
vertex 0.0609471090138 -0.0442806519568 -0.0247749984264
vertex 0.0895020887256 -0.0456035770476 -0.0247749984264
vertex 0.102927394211 -0.0524441041052 -5.20301857154e-11
endloop
endfacet
facet normal -0.0448896363378 -0.968936026096 0.243203297257
outer loop
vertex 0.0700891762972 -0.050922755152 -5.20301857154e-11
vertex 0.102927394211 -0.0524441041052 -5.20301857154e-11
vertex 0.0895020887256 -0.0456035770476 0.0247749984264
endloop
endfacet
facet normal -0.968935787678 -0.0448898747563 -0.243204340339
outer loop
vertex -0.045603595674 0.0895020663738 -0.0247749984264
vertex -0.0509227700531 0.070089161396 -5.20301857154e-11
vertex -0.0524441339076 0.102927386761 -5.20301857154e-11
endloop
endfacet
facet normal 0.605842709541 0.757500469685 -0.243202924728
outer loop
vertex -0.0232797283679 0.0716476142406 -0.0247749984264
vertex -0.045603595674 0.0895020663738 -0.0247749984264
vertex -0.0524441339076 0.102927386761 -5.20301857154e-11
endloop
endfacet
facet normal 0.605842411518 0.757500290871 0.243204325438
outer loop
vertex -0.0267716851085 0.0823947787285 -5.20301857154e-11
vertex -0.0524441339076 0.102927386761 -5.20301857154e-11
vertex -0.045603595674 0.0895020663738 0.0247749984264
endloop
endfacet
facet normal -0.968935847282 -0.0448900908232 0.243203952909
outer loop
vertex -0.0524441339076 0.102927386761 -5.20301857154e-11
vertex -0.0442806705832 0.0609471164644 0.0247749984264
vertex -0.045603595674 0.0895020663738 0.0247749984264
endloop
endfacet
facet normal -0.968935787678 -0.0448898859322 0.243204265833
outer loop
vertex -0.0524441339076 0.102927386761 -5.20301857154e-11
vertex -0.0509227700531 0.070089161396 -5.20301857154e-11
vertex -0.0442806705832 0.0609471164644 0.0247749984264
endloop
endfacet
facet normal 0.605842113495 0.757500171661 -0.243205323815
outer loop
vertex -0.0232797283679 0.0716476142406 -0.0247749984264
vertex -0.0524441339076 0.102927386761 -5.20301857154e-11
vertex -0.0267716851085 0.0823947787285 -5.20301857154e-11
endloop
endfacet
facet normal -0.93538403511 -0.256725072861 -0.243205547333
outer loop
vertex -0.0232797097415 -0.0716475844383 -0.0247749984264
vertex -0.0180709976703 -0.11409586668 -5.20301857154e-11
vertex -0.0267716739327 -0.0823947787285 -5.20301857154e-11
endloop
endfacet
facet normal -0.93538415432 -0.256725400686 0.243204772472
outer loop
vertex -0.0267716739327 -0.0823947787285 -5.20301857154e-11
vertex -0.0180709976703 -0.11409586668 -5.20301857154e-11
vertex -0.0157139133662 -0.0992138385773 0.0247749984264
endloop
endfacet
facet normal -0.935384631157 -0.256724178791 -0.24320410192
outer loop
vertex -0.0232797097415 -0.0716475844383 -0.0247749984264
vertex -0.0157139133662 -0.0992138385773 -0.0247749984264
vertex -0.0180709976703 -0.11409586668 -5.20301857154e-11
endloop
endfacet
facet normal 0.605841875076 -0.757500290871 -0.243205443025
outer loop
vertex -0.0456035770476 -0.0895020961761 -0.0247749984264
vertex -0.0267716739327 -0.0823947787285 -5.20301857154e-11
vertex -0.0524441115558 -0.102927386761 -5.20301857154e-11
endloop
endfacet
facet normal -0.968936026096 0.0448900088668 -0.243203267455
outer loop
vertex -0.0442806594074 -0.060947123915 -0.0247749984264
vertex -0.0456035770476 -0.0895020961761 -0.0247749984264
vertex -0.0524441115558 -0.102927386761 -5.20301857154e-11
endloop
endfacet
facet normal -0.968935906887 0.0448896288872 0.243203818798
outer loop
vertex -0.0509227626026 -0.070089161396 -5.20301857154e-11
vertex -0.0524441115558 -0.102927386761 -5.20301857154e-11
vertex -0.0456035770476 -0.0895020961761 0.0247749984264
endloop
endfacet
facet normal 0.605842828751 -0.757499694824 0.243205025792
outer loop
vertex -0.0524441115558 -0.102927386761 -5.20301857154e-11
vertex -0.0232797097415 -0.0716475844383 0.0247749984264
vertex -0.0456035770476 -0.0895020961761 0.0247749984264
endloop
endfacet
facet normal -0.968935728073 0.0448893159628 -0.24320474267
outer loop
vertex -0.0442806594074 -0.060947123915 -0.0247749984264
vertex -0.0524441115558 -0.102927386761 -5.20301857154e-11
vertex -0.0509227626026 -0.070089161396 -5.20301857154e-11
endloop
endfacet
facet normal 0.605842709541 -0.757499694824 0.243205353618
outer loop
vertex -0.0524441115558 -0.102927386761 -5.20301857154e-11
vertex -0.0267716739327 -0.0823947787285 -5.20301857154e-11
vertex -0.0232797097415 -0.0716475844383 0.0247749984264
endloop
endfacet
facet normal -0.968936026096 -0.0448900386691 -0.243203431368
outer loop
vertex -0.045603595674 0.0895020663738 -0.0247749984264
vertex -0.0442806705832 0.0609471164644 -0.0247749984264
vertex -0.0509227700531 0.070089161396 -5.20301857154e-11
endloop
endfacet
facet normal 1.51721167185e-06 0.0 -1.0
outer loop
vertex -0.0232797283679 0.0716476142406 -0.0247749984264
vertex -0.0442806705832 0.0609471164644 -0.0247749984264
vertex -0.045603595674 0.0895020663738 -0.0247749984264
endloop
endfacet
facet normal 0.605842530727 0.757500588894 0.243202865124
outer loop
vertex -0.0267716851085 0.0823947787285 -5.20301857154e-11
vertex -0.045603595674 0.0895020663738 0.0247749984264
vertex -0.0232797283679 0.0716476142406 0.0247749984264
endloop
endfacet
facet normal 1.51721167185e-06 0.0 1.0
outer loop
vertex -0.0232797283679 0.0716476142406 0.0247749984264
vertex -0.045603595674 0.0895020663738 0.0247749984264
vertex -0.0442806705832 0.0609471164644 0.0247749984264
endloop
endfacet
facet normal 0.605843603611 -0.757499098778 -0.243204936385
outer loop
vertex -0.0456035770476 -0.0895020961761 -0.0247749984264
vertex -0.0232797097415 -0.0716475844383 -0.0247749984264
vertex -0.0267716739327 -0.0823947787285 -5.20301857154e-11
endloop
endfacet
facet normal 7.58607939133e-07 0.0 -1.0
outer loop
vertex -0.0442806594074 -0.060947123915 -0.0247749984264
vertex -0.0232797097415 -0.0716475844383 -0.0247749984264
vertex -0.0456035770476 -0.0895020961761 -0.0247749984264
endloop
endfacet
facet normal -0.968935787678 0.0448897071183 0.243204325438
outer loop
vertex -0.0509227626026 -0.070089161396 -5.20301857154e-11
vertex -0.0456035770476 -0.0895020961761 0.0247749984264
vertex -0.0442806594074 -0.060947123915 0.0247749984264
endloop
endfacet
facet normal 7.58607939133e-07 0.0 1.0
outer loop
vertex -0.0442806594074 -0.060947123915 0.0247749984264
vertex -0.0456035770476 -0.0895020961761 0.0247749984264
vertex -0.0232797097415 -0.0716475844383 0.0247749984264
endloop
endfacet
facet normal 0.0 0.0 -1.0
outer loop
vertex 0.0609471052885 0.0442806743085 -0.0247749984264
vertex -0.0232797097415 -0.0716475844383 -0.0247749984264
vertex 0.0442806631327 0.0609471164644 -0.0247749984264
endloop
endfacet
facet normal 0.0 0.0 -1.0
outer loop
vertex 0.0442806631327 0.0609471164644 -0.0247749984264
vertex -0.0232797097415 -0.0716475844383 -0.0247749984264
vertex 0.0232797190547 0.0716476142406 -0.0247749984264
endloop
endfacet
facet normal 0.0 0.0 -1.0
outer loop
vertex 0.0609471052885 0.0442806743085 -0.0247749984264
vertex 0.0442806631327 0.0609471164644 -0.0247749984264
vertex 0.0710292458534 0.0710292458534 -0.0247749984264
endloop
endfacet
facet normal -7.58603334816e-07 0.0 -1.0
outer loop
vertex 0.0442806631327 0.0609471164644 -0.0247749984264
vertex 0.0232797190547 0.0716476142406 -0.0247749984264
vertex 0.0456035807729 0.0895020961761 -0.0247749984264
endloop
endfacet
facet normal -0.342110216618 0.907641410828 -0.243202850223
outer loop
vertex 0.0710292458534 0.0710292458534 -0.0247749984264
vertex 0.0442806631327 0.0609471164644 -0.0247749984264
vertex 0.050922755152 0.070089161396 -5.20301857154e-11
endloop
endfacet
facet normal 0.968935906887 -0.0448896028101 -0.243203803897
outer loop
vertex 0.0442806631327 0.0609471164644 -0.0247749984264
vertex 0.0524441115558 0.102927386761 -5.20301857154e-11
vertex 0.050922755152 0.070089161396 -5.20301857154e-11
endloop
endfacet
facet normal 0.968935728073 -0.044889677316 -0.243204474449
outer loop
vertex 0.0442806631327 0.0609471164644 -0.0247749984264
vertex 0.0456035807729 0.0895020961761 -0.0247749984264
vertex 0.0524441115558 0.102927386761 -5.20301857154e-11
endloop
endfacet
facet normal 0.0 0.0 1.0
outer loop
vertex 0.0609471052885 0.0442806743085 0.0247749984264
vertex 0.0442806631327 0.0609471164644 0.0247749984264
vertex -0.0232797097415 -0.0716475844383 0.0247749984264
endloop
endfacet
facet normal 0.0 0.0 1.0
outer loop
vertex 0.0442806631327 0.0609471164644 0.0247749984264
vertex 0.0232797190547 0.0716476142406 0.0247749984264
vertex -0.0232797097415 -0.0716475844383 0.0247749984264
endloop
endfacet
facet normal 7.58607939133e-07 0.0 1.0
outer loop
vertex 0.0609471052885 0.0442806743085 0.0247749984264
vertex 0.0710292458534 0.0710292458534 0.0247749984264
vertex 0.0442806631327 0.0609471164644 0.0247749984264
endloop
endfacet
facet normal -7.58603334816e-07 0.0 1.0
outer loop
vertex 0.0442806631327 0.0609471164644 0.0247749984264
vertex 0.0456035807729 0.0895020961761 0.0247749984264
vertex 0.0232797190547 0.0716476142406 0.0247749984264
endloop
endfacet
facet normal -0.342110514641 0.907640635967 0.243205294013
outer loop
vertex 0.0816836357117 0.0816836357117 -5.20301857154e-11
vertex 0.050922755152 0.070089161396 -5.20301857154e-11
vertex 0.0442806631327 0.0609471164644 0.0247749984264
endloop
endfacet
facet normal -0.342109680176 0.907641589642 0.24320293963
outer loop
vertex 0.0816836357117 0.0816836357117 -5.20301857154e-11
vertex 0.0442806631327 0.0609471164644 0.0247749984264
vertex 0.0710292458534 0.0710292458534 0.0247749984264
endloop
endfacet
facet normal 0.968935847282 -0.0448895543814 0.243204012513
outer loop
vertex 0.050922755152 0.070089161396 -5.20301857154e-11
vertex 0.0456035807729 0.0895020961761 0.0247749984264
vertex 0.0442806631327 0.0609471164644 0.0247749984264
endloop
endfacet
facet normal 0.0 0.0 -1.0
outer loop
vertex 0.044280666858 -0.060947123915 -0.0247749984264
vertex -0.0232797097415 -0.0716475844383 -0.0247749984264
vertex 0.0609471090138 -0.0442806519568 -0.0247749984264
endloop
endfacet
facet normal 0.0 0.0 -1.0
outer loop
vertex 0.0232797320932 -0.0716475844383 -0.0247749984264
vertex -0.0232797097415 -0.0716475844383 -0.0247749984264
vertex 0.044280666858 -0.060947123915 -0.0247749984264
endloop
endfacet
facet normal 1.51721587827e-06 0.0 -1.0
outer loop
vertex 0.044280666858 -0.060947123915 -0.0247749984264
vertex 0.0609471090138 -0.0442806519568 -0.0247749984264
vertex 0.0710292607546 -0.0710292458534 -0.0247749984264
endloop
endfacet
facet normal -1.517218152e-06 0.0 -1.0
outer loop
vertex 0.0232797320932 -0.0716475844383 -0.0247749984264
vertex 0.044280666858 -0.060947123915 -0.0247749984264
vertex 0.0456035993993 -0.0895020365715 -0.0247749984264
endloop
endfacet
facet normal -0.34211024642 -0.907639086246 -0.243211552501
outer loop
vertex 0.044280666858 -0.060947123915 -0.0247749984264
vertex 0.0816836506128 -0.0816836357117 -5.20301857154e-11
vertex 0.0509227700531 -0.070089161396 -5.20301857154e-11
endloop
endfacet
facet normal -0.342110216618 -0.907642424107 -0.243199244142
outer loop
vertex 0.044280666858 -0.060947123915 -0.0247749984264
vertex 0.0710292607546 -0.0710292458534 -0.0247749984264
vertex 0.0816836506128 -0.0816836357117 -5.20301857154e-11
endloop
endfacet
facet normal 0.968935906887 0.0448900908232 -0.24320371449
outer loop
vertex 0.0456035993993 -0.0895020365715 -0.0247749984264
vertex 0.044280666858 -0.060947123915 -0.0247749984264
vertex 0.0509227700531 -0.070089161396 -5.20301857154e-11
endloop
endfacet
facet normal 0.0 0.0 1.0
outer loop
vertex 0.044280666858 -0.060947123915 0.0247749984264
vertex 0.0609471090138 -0.0442806519568 0.0247749984264
vertex -0.0232797097415 -0.0716475844383 0.0247749984264
endloop
endfacet
facet normal 0.0 0.0 1.0
outer loop
vertex 0.0232797320932 -0.0716475844383 0.0247749984264
vertex 0.044280666858 -0.060947123915 0.0247749984264
vertex -0.0232797097415 -0.0716475844383 0.0247749984264
endloop
endfacet
facet normal 0.0 0.0 1.0
outer loop
vertex 0.044280666858 -0.060947123915 0.0247749984264
vertex 0.0710292607546 -0.0710292458534 0.0247749984264
vertex 0.0609471090138 -0.0442806519568 0.0247749984264
endloop
endfacet
facet normal 0.0 0.0 1.0
outer loop
vertex 0.0232797320932 -0.0716475844383 0.0247749984264
vertex 0.0456035993993 -0.0895020365715 0.0247749984264
vertex 0.044280666858 -0.060947123915 0.0247749984264
endloop
endfacet
facet normal -0.342109650373 -0.907640993595 0.24320524931
outer loop
vertex 0.0509227700531 -0.070089161396 -5.20301857154e-11
vertex 0.0710292607546 -0.0710292458534 0.0247749984264
vertex 0.044280666858 -0.060947123915 0.0247749984264
endloop
endfacet
facet normal 0.968935906887 0.0448898933828 0.243203744292
outer loop
vertex 0.0524441376328 -0.102927386761 -5.20301857154e-11
vertex 0.0509227700531 -0.070089161396 -5.20301857154e-11
vertex 0.044280666858 -0.060947123915 0.0247749984264
endloop
endfacet
facet normal 0.968935787678 0.0448900870979 0.243204325438
outer loop
vertex 0.0524441376328 -0.102927386761 -5.20301857154e-11
vertex 0.044280666858 -0.060947123915 0.0247749984264
vertex 0.0456035993993 -0.0895020365715 0.0247749984264
endloop
endfacet
facet normal -0.907641112804 -0.342110157013 -0.243204116821
outer loop
vertex -0.071029253304 0.0710292458534 -0.0247749984264
vertex -0.0700891688466 0.0509227477014 -5.20301857154e-11
vertex -0.0816836357117 0.0816836357117 -5.20301857154e-11
endloop
endfacet
facet normal 0.342109560966 0.9076410532 -0.243205174804
outer loop
vertex -0.0442806705832 0.0609471164644 -0.0247749984264
vertex -0.071029253304 0.0710292458534 -0.0247749984264
vertex -0.0816836357117 0.0816836357117 -5.20301857154e-11
endloop
endfacet
facet normal -0.907640397549 -0.34211152792 -0.243204787374
outer loop
vertex -0.071029253304 0.0710292458534 -0.0247749984264
vertex -0.0609471090138 0.0442806743085 -0.0247749984264
vertex -0.0700891688466 0.0509227477014 -5.20301857154e-11
endloop
endfacet
facet normal 0.0 0.0 -1.0
outer loop
vertex -0.0442806705832 0.0609471164644 -0.0247749984264
vertex -0.0609471090138 0.0442806743085 -0.0247749984264
vertex -0.071029253304 0.0710292458534 -0.0247749984264
endloop
endfacet
facet normal 0.34211024642 0.9076410532 0.243204176426
outer loop
vertex -0.0509227700531 0.070089161396 -5.20301857154e-11
vertex -0.0816836357117 0.0816836357117 -5.20301857154e-11
vertex -0.071029253304 0.0710292458534 0.0247749984264
endloop
endfacet
facet normal 0.342109978199 0.907641530037 0.243202924728
outer loop
vertex -0.0509227700531 0.070089161396 -5.20301857154e-11
vertex -0.071029253304 0.0710292458534 0.0247749984264
vertex -0.0442806705832 0.0609471164644 0.0247749984264
endloop
endfacet
facet normal -0.907640814781 -0.342110902071 0.243204176426
outer loop
vertex -0.0816836357117 0.0816836357117 -5.20301857154e-11
vertex -0.0609471090138 0.0442806743085 0.0247749984264
vertex -0.071029253304 0.0710292458534 0.0247749984264
endloop
endfacet
facet normal -1.51721587827e-06 0.0 1.0
outer loop
vertex -0.0442806705832 0.0609471164644 0.0247749984264
vertex -0.071029253304 0.0710292458534 0.0247749984264
vertex -0.0609471090138 0.0442806743085 0.0247749984264
endloop
endfacet
facet normal 0.342111080885 -0.907640993595 -0.243203267455
outer loop
vertex -0.0710292384028 -0.0710292458534 -0.0247749984264
vertex -0.0509227626026 -0.070089161396 -5.20301857154e-11
vertex -0.0816836208105 -0.0816836357117 -5.20301857154e-11
endloop
endfacet
facet normal 0.342110037804 -0.907640814781 -0.243205294013
outer loop
vertex -0.0710292384028 -0.0710292458534 -0.0247749984264
vertex -0.0442806594074 -0.060947123915 -0.0247749984264
vertex -0.0509227626026 -0.070089161396 -5.20301857154e-11
endloop
endfacet
facet normal -0.907640576363 0.342110693455 -0.243205308914
outer loop
vertex -0.0609471015632 -0.0442806519568 -0.0247749984264
vertex -0.0710292384028 -0.0710292458534 -0.0247749984264
vertex -0.0816836208105 -0.0816836357117 -5.20301857154e-11
endloop
endfacet
facet normal -7.58607939133e-07 0.0 -1.0
outer loop
vertex -0.0609471015632 -0.0442806519568 -0.0247749984264
vertex -0.0442806594074 -0.060947123915 -0.0247749984264
vertex -0.0710292384028 -0.0710292458534 -0.0247749984264
endloop
endfacet
facet normal -0.9076410532 0.342110335827 0.243204221129
outer loop
vertex -0.070089161396 -0.050922755152 -5.20301857154e-11
vertex -0.0816836208105 -0.0816836357117 -5.20301857154e-11
vertex -0.0710292384028 -0.0710292458534 0.0247749984264
endloop
endfacet
facet normal 0.342109709978 -0.907642304897 0.243200406432
outer loop
vertex -0.0816836208105 -0.0816836357117 -5.20301857154e-11
vertex -0.0442806594074 -0.060947123915 0.0247749984264
vertex -0.0710292384028 -0.0710292458534 0.0247749984264
endloop
endfacet
facet normal -0.907641232014 0.342109948397 0.243203938007
outer loop
vertex -0.070089161396 -0.050922755152 -5.20301857154e-11
vertex -0.0710292384028 -0.0710292458534 0.0247749984264
vertex -0.0609471015632 -0.0442806519568 0.0247749984264
endloop
endfacet
facet normal -7.58607939133e-07 0.0 1.0
outer loop
vertex -0.0609471015632 -0.0442806519568 0.0247749984264
vertex -0.0710292384028 -0.0710292458534 0.0247749984264
vertex -0.0442806594074 -0.060947123915 0.0247749984264
endloop
endfacet
facet normal -0.533209264278 -0.810271561146 0.243203416467
outer loop
vertex -0.114095874131 0.018070993945 -5.20301857154e-11
vertex -0.0866349712014 -2.5390107794e-09 -5.20301857154e-11
vertex -0.075334765017 -2.5390107794e-09 0.0247749984264
endloop
endfacet
facet normal -0.533209681511 -0.810271322727 -0.243203341961
outer loop
vertex -0.0992138162255 0.0157139282674 -0.0247749984264
vertex -0.0866349712014 -2.5390107794e-09 -5.20301857154e-11
vertex -0.114095874131 0.018070993945 -5.20301857154e-11
endloop
endfacet
facet normal -0.533210575581 0.810270130634 -0.243205234408
outer loop
vertex -0.075334765017 -2.5390107794e-09 -0.0247749984264
vertex -0.114095874131 -0.0180710572749 -5.20301857154e-11
vertex -0.0866349712014 -2.5390107794e-09 -5.20301857154e-11
endloop
endfacet
facet normal -0.533210456371 0.810270488262 0.243204221129
outer loop
vertex -0.0866349712014 -2.5390107794e-09 -5.20301857154e-11
vertex -0.114095874131 -0.0180710572749 -5.20301857154e-11
vertex -0.0992138162255 -0.0157139021903 0.0247749984264
endloop
endfacet
facet normal -0.53320991993 -0.810270965099 -0.243203923106
outer loop
vertex -0.0992138162255 0.0157139282674 -0.0247749984264
vertex -0.075334765017 -2.5390107794e-09 -0.0247749984264
vertex -0.0866349712014 -2.5390107794e-09 -5.20301857154e-11
endloop
endfacet
facet normal -0.533208847046 0.810271263123 0.243205294013
outer loop
vertex -0.0866349712014 -2.5390107794e-09 -5.20301857154e-11
vertex -0.0992138162255 -0.0157139021903 0.0247749984264
vertex -0.075334765017 -2.5390107794e-09 0.0247749984264
endloop
endfacet
facet normal 0.935384452343 0.256724834442 -0.243204221129
outer loop
vertex 0.0232797190547 0.0716476142406 -0.0247749984264
vertex 0.0157139189541 0.0992138087749 -0.0247749984264
vertex 0.0180710069835 0.114095896482 -5.20301857154e-11
endloop
endfacet
facet normal 0.935384511948 0.256724864244 0.243203923106
outer loop
vertex 0.0267716795206 0.0823947787285 -5.20301857154e-11
vertex 0.0157139189541 0.0992138087749 0.0247749984264
vertex 0.0232797190547 0.0716476142406 0.0247749984264
endloop
endfacet
facet normal 0.935384333134 0.256724983454 0.243204504251
outer loop
vertex 0.0267716795206 0.0823947787285 -5.20301857154e-11
vertex 0.0180710069835 0.114095896482 -5.20301857154e-11
vertex 0.0157139189541 0.0992138087749 0.0247749984264
endloop
endfacet
facet normal 0.0448906384408 -0.968935847282 -0.243203863502
outer loop
vertex -0.0895020738244 -0.0456036068499 -0.0247749984264
vertex -0.0609471015632 -0.0442806519568 -0.0247749984264
vertex -0.070089161396 -0.050922755152 -5.20301857154e-11
endloop
endfacet
facet normal 0.0448904447258 -0.968937039375 -0.243199110031
outer loop
vertex -0.0895020738244 -0.0456036068499 -0.0247749984264
vertex -0.070089161396 -0.050922755152 -5.20301857154e-11
vertex -0.102927386761 -0.0524441339076 -5.20301857154e-11
endloop
endfacet
facet normal 3.79301667408e-07 0.0 -1.0
outer loop
vertex -0.0716476142406 -0.0232797283679 -0.0247749984264
vertex -0.0609471015632 -0.0442806519568 -0.0247749984264
vertex -0.0895020738244 -0.0456036068499 -0.0247749984264
endloop
endfacet
facet normal -0.757500708103 0.605843007565 -0.243201524019
outer loop
vertex -0.0716476142406 -0.0232797283679 -0.0247749984264
vertex -0.0895020738244 -0.0456036068499 -0.0247749984264
vertex -0.102927386761 -0.0524441339076 -5.20301857154e-11
endloop
endfacet
facet normal -7.58603334816e-07 0.0 1.0
outer loop
vertex -0.0716476142406 -0.0232797283679 0.0247749984264
vertex -0.0895020738244 -0.0456036068499 0.0247749984264
vertex -0.0609471015632 -0.0442806519568 0.0247749984264
endloop
endfacet
facet normal 0.044891025871 -0.968936741352 0.243200421333
outer loop
vertex -0.102927386761 -0.0524441339076 -5.20301857154e-11
vertex -0.0609471015632 -0.0442806519568 0.0247749984264
vertex -0.0895020738244 -0.0456036068499 0.0247749984264
endloop
endfacet
facet normal -0.757500052452 0.605843245983 0.243202894926
outer loop
vertex -0.0823947563767 -0.0267716664821 -5.20301857154e-11
vertex -0.0895020738244 -0.0456036068499 0.0247749984264
vertex -0.0716476142406 -0.0232797283679 0.0247749984264
endloop
endfacet
facet normal -0.757500171661 0.605842232704 0.243205145001
outer loop
vertex -0.0823947563767 -0.0267716664821 -5.20301857154e-11
vertex -0.102927386761 -0.0524441339076 -5.20301857154e-11
vertex -0.0895020738244 -0.0456036068499 0.0247749984264
endloop
endfacet
facet normal 7.58606802265e-07 0.0 -1.0
outer loop
vertex -0.0609471090138 0.0442806743085 -0.0247749984264
vertex -0.0716476142406 0.0232797246426 -0.0247749984264
vertex -0.0895020738244 0.045603569597 -0.0247749984264
endloop
endfacet
facet normal 0.0448890924454 0.96893620491 -0.243202835321
outer loop
vertex -0.0609471090138 0.0442806743085 -0.0247749984264
vertex -0.0895020738244 0.045603569597 -0.0247749984264
vertex -0.102927386761 0.052444126457 -5.20301857154e-11
endloop
endfacet
facet normal -0.757499814034 -0.605843067169 -0.24320410192
outer loop
vertex -0.0895020738244 0.045603569597 -0.0247749984264
vertex -0.0716476142406 0.0232797246426 -0.0247749984264
vertex -0.0823947563767 0.0267716925591 -5.20301857154e-11
endloop
endfacet
facet normal -0.757500588894 -0.605842530727 -0.243203058839
outer loop
vertex -0.0895020738244 0.045603569597 -0.0247749984264
vertex -0.0823947563767 0.0267716925591 -5.20301857154e-11
vertex -0.102927386761 0.052444126457 -5.20301857154e-11
endloop
endfacet
facet normal 0.0448887720704 0.968936860561 0.243200287223
outer loop
vertex -0.0700891688466 0.0509227477014 -5.20301857154e-11
vertex -0.0895020738244 0.045603569597 0.0247749984264
vertex -0.0609471090138 0.0442806743085 0.0247749984264
endloop
endfacet
facet normal 0.0448904521763 0.968935728073 0.243204325438
outer loop
vertex -0.0700891688466 0.0509227477014 -5.20301857154e-11
vertex -0.102927386761 0.052444126457 -5.20301857154e-11
vertex -0.0895020738244 0.045603569597 0.0247749984264
endloop
endfacet
facet normal 0.0 0.0 1.0
outer loop
vertex -0.0609471090138 0.0442806743085 0.0247749984264
vertex -0.0895020738244 0.045603569597 0.0247749984264
vertex -0.0716476142406 0.0232797246426 0.0247749984264
endloop
endfacet
facet normal -0.757500052452 -0.605843245983 0.243202894926
outer loop
vertex -0.102927386761 0.052444126457 -5.20301857154e-11
vertex -0.0716476142406 0.0232797246426 0.0247749984264
vertex -0.0895020738244 0.045603569597 0.0247749984264
endloop
endfacet
facet normal 0.935384631157 -0.256724238396 -0.243204191327
outer loop
vertex 0.0157139375806 -0.0992138385773 -0.0247749984264
vertex 0.0232797320932 -0.0716475844383 -0.0247749984264
vertex 0.0267716925591 -0.0823947787285 -5.20301857154e-11
endloop
endfacet
facet normal 0.935384333134 -0.256725013256 -0.243204519153
outer loop
vertex 0.0157139375806 -0.0992138385773 -0.0247749984264
vertex 0.0267716925591 -0.0823947787285 -5.20301857154e-11
vertex 0.0180710293353 -0.11409586668 -5.20301857154e-11
endloop
endfacet
facet normal 0.935384750366 -0.256724357605 0.243203654885
outer loop
vertex 0.0180710293353 -0.11409586668 -5.20301857154e-11
vertex 0.0232797320932 -0.0716475844383 0.0247749984264
vertex 0.0157139375806 -0.0992138385773 0.0247749984264
endloop
endfacet
facet normal 0.342110991478 0.9076410532 -0.24320320785
outer loop
vertex -0.0442806705832 0.0609471164644 -0.0247749984264
vertex -0.0816836357117 0.0816836357117 -5.20301857154e-11
vertex -0.0509227700531 0.070089161396 -5.20301857154e-11
endloop
endfacet
facet normal 0.34211063385 -0.907639980316 0.243207588792
outer loop
vertex -0.0816836208105 -0.0816836357117 -5.20301857154e-11
vertex -0.0509227626026 -0.070089161396 -5.20301857154e-11
vertex -0.0442806594074 -0.060947123915 0.0247749984264
endloop
endfacet
facet normal -0.533209323883 -0.810270965099 0.243205204606
outer loop
vertex -0.114095874131 0.018070993945 -5.20301857154e-11
vertex -0.075334765017 -2.5390107794e-09 0.0247749984264
vertex -0.0992138162255 0.0157139282674 0.0247749984264
endloop
endfacet
facet normal -0.256725847721 0.93538415432 0.243204325438
outer loop
vertex -0.0823947563767 0.0267716925591 -5.20301857154e-11
vertex -0.114095874131 0.018070993945 -5.20301857154e-11
vertex -0.0992138162255 0.0157139282674 0.0247749984264
endloop
endfacet
facet normal -0.2567255795 0.935383975506 -0.24320524931
outer loop
vertex -0.0716476142406 0.0232797246426 -0.0247749984264
vertex -0.114095874131 0.018070993945 -5.20301857154e-11
vertex -0.0823947563767 0.0267716925591 -5.20301857154e-11
endloop
endfacet
facet normal -0.256725221872 0.935384988785 -0.24320165813
outer loop
vertex -0.0716476142406 0.0232797246426 -0.0247749984264
vertex -0.0992138162255 0.0157139282674 -0.0247749984264
vertex -0.114095874131 0.018070993945 -5.20301857154e-11
endloop
endfacet
facet normal -0.533209383488 0.81027162075 -0.243202865124
outer loop
vertex -0.075334765017 -2.5390107794e-09 -0.0247749984264
vertex -0.0992138162255 -0.0157139021903 -0.0247749984264
vertex -0.114095874131 -0.0180710572749 -5.20301857154e-11
endloop
endfacet
facet normal -0.25672352314 -0.935384988785 -0.243203431368
outer loop
vertex -0.0992138162255 -0.0157139021903 -0.0247749984264
vertex -0.0823947563767 -0.0267716664821 -5.20301857154e-11
vertex -0.114095874131 -0.0180710572749 -5.20301857154e-11
endloop
endfacet
facet normal -0.256723463535 -0.935385346413 0.243202269077
outer loop
vertex -0.114095874131 -0.0180710572749 -5.20301857154e-11
vertex -0.0823947563767 -0.0267716664821 -5.20301857154e-11
vertex -0.0716476142406 -0.0232797283679 0.0247749984264
endloop
endfacet
facet normal -0.256725341082 -0.935383439064 0.243207648396
outer loop
vertex -0.114095874131 -0.0180710572749 -5.20301857154e-11
vertex -0.0716476142406 -0.0232797283679 0.0247749984264
vertex -0.0992138162255 -0.0157139021903 0.0247749984264
endloop
endfacet
facet normal -0.935384571552 0.256724685431 -0.243203938007
outer loop
vertex -0.0157139282674 0.0992138087749 -0.0247749984264
vertex -0.0232797283679 0.0716476142406 -0.0247749984264
vertex -0.0267716851085 0.0823947787285 -5.20301857154e-11
endloop
endfacet
facet normal -0.935384452343 -0.256724298 0.243204846978
outer loop
vertex -0.0267716739327 -0.0823947787285 -5.20301857154e-11
vertex -0.0157139133662 -0.0992138385773 0.0247749984264
vertex -0.0232797097415 -0.0716475844383 0.0247749984264
endloop
endfacet
facet normal -0.907640695572 -0.342110782862 0.243204712868
outer loop
vertex -0.0816836357117 0.0816836357117 -5.20301857154e-11
vertex -0.0700891688466 0.0509227477014 -5.20301857154e-11
vertex -0.0609471090138 0.0442806743085 0.0247749984264
endloop
endfacet
facet normal -0.907641530037 0.34210973978 -0.243203118443
outer loop
vertex -0.0609471015632 -0.0442806519568 -0.0247749984264
vertex -0.0816836208105 -0.0816836357117 -5.20301857154e-11
vertex -0.070089161396 -0.050922755152 -5.20301857154e-11
endloop
endfacet
facet normal 0.0 0.0 -1.0
outer loop
vertex 0.0609471090138 -0.0442806519568 -0.0247749984264
vertex -0.0232797097415 -0.0716475844383 -0.0247749984264
vertex 0.0716476216912 -0.0232796985656 -0.0247749984264
endloop
endfacet
facet normal -4.58429610717e-07 0.0 -1.0
outer loop
vertex 0.075334765017 -2.5390107794e-09 -0.0247749984264
vertex 0.0716476216912 -0.0232796985656 -0.0247749984264
vertex -0.0232797097415 -0.0716475844383 -0.0247749984264
endloop
endfacet
facet normal -7.5861021287e-07 0.0 -1.0
outer loop
vertex 0.0716476216912 -0.0232796985656 -0.0247749984264
vertex 0.075334765017 -2.5390107794e-09 -0.0247749984264
vertex 0.0992138162255 -0.0157139021903 -0.0247749984264
endloop
endfacet
facet normal 0.256724953651 -0.935383796692 -0.243206545711
outer loop
vertex 0.0716476216912 -0.0232796985656 -0.0247749984264
vertex 0.0992138162255 -0.0157139021903 -0.0247749984264
vertex 0.114095881581 -0.0180709976703 -5.20301857154e-11
endloop
endfacet
facet normal 0.256724864244 -0.93538415432 -0.243205368519
outer loop
vertex 0.0716476216912 -0.0232796985656 -0.0247749984264
vertex 0.114095881581 -0.0180709976703 -5.20301857154e-11
vertex 0.0823947638273 -0.0267716664821 -5.20301857154e-11
endloop
endfacet
facet normal 0.757500171661 0.605842709541 -0.243203818798
outer loop
vertex 0.0895020887256 -0.0456035770476 -0.0247749984264
vertex 0.0716476216912 -0.0232796985656 -0.0247749984264
vertex 0.0823947638273 -0.0267716664821 -5.20301857154e-11
endloop
endfacet
facet normal -7.58605608553e-07 0.0 -1.0
outer loop
vertex 0.0609471090138 -0.0442806519568 -0.0247749984264
vertex 0.0716476216912 -0.0232796985656 -0.0247749984264
vertex 0.0895020887256 -0.0456035770476 -0.0247749984264
endloop
endfacet
facet normal 0.0 0.0 1.0
outer loop
vertex 0.0609471090138 -0.0442806519568 0.0247749984264
vertex 0.0716476216912 -0.0232796985656 0.0247749984264
vertex -0.0232797097415 -0.0716475844383 0.0247749984264
endloop
endfacet
facet normal 0.0 0.0 1.0
outer loop
vertex 0.0716476216912 -0.0232796985656 0.0247749984264
vertex 0.075334765017 -2.5390107794e-09 0.0247749984264
vertex -0.0232797097415 -0.0716475844383 0.0247749984264
endloop
endfacet
facet normal 0.256724983454 -0.935384094715 0.243205353618
outer loop
vertex 0.0823947638273 -0.0267716664821 -5.20301857154e-11
vertex 0.0992138162255 -0.0157139021903 0.0247749984264
vertex 0.0716476216912 -0.0232796985656 0.0247749984264
endloop
endfacet
facet normal 7.5861021287e-07 0.0 1.0
outer loop
vertex 0.0716476216912 -0.0232796985656 0.0247749984264
vertex 0.0992138162255 -0.0157139021903 0.0247749984264
vertex 0.075334765017 -2.5390107794e-09 0.0247749984264
endloop
endfacet
facet normal 0.0 0.0 1.0
outer loop
vertex 0.0609471090138 -0.0442806519568 0.0247749984264
vertex 0.0895020887256 -0.0456035770476 0.0247749984264
vertex 0.0716476216912 -0.0232796985656 0.0247749984264
endloop
endfacet
facet normal 0.0 0.0 -1.0
outer loop
vertex 0.0716476142406 0.0232797246426 -0.0247749984264
vertex -0.0232797097415 -0.0716475844383 -0.0247749984264
vertex 0.0609471052885 0.0442806743085 -0.0247749984264
endloop
endfacet
facet normal 0.0 0.0 -1.0
outer loop
vertex 0.075334765017 -2.5390107794e-09 -0.0247749984264
vertex -0.0232797097415 -0.0716475844383 -0.0247749984264
vertex 0.0716476142406 0.0232797246426 -0.0247749984264
endloop
endfacet
facet normal 0.256725043058 0.935384750366 -0.243202880025
outer loop
vertex 0.0992138162255 0.0157139282674 -0.0247749984264
vertex 0.0716476142406 0.0232797246426 -0.0247749984264
vertex 0.0823947638273 0.0267716925591 -5.20301857154e-11
endloop
endfacet
facet normal -3.79302804276e-07 0.0 -1.0
outer loop
vertex 0.075334765017 -2.5390107794e-09 -0.0247749984264
vertex 0.0716476142406 0.0232797246426 -0.0247749984264
vertex 0.0992138162255 0.0157139282674 -0.0247749984264
endloop
endfacet
facet normal -4.74129961958e-07 0.0 -1.0
outer loop
vertex 0.0716476142406 0.0232797246426 -0.0247749984264
vertex 0.0609471052885 0.0442806743085 -0.0247749984264
vertex 0.0895020738244 0.0456035993993 -0.0247749984264
endloop
endfacet
facet normal 0.0 0.0 1.0
outer loop
vertex 0.0716476142406 0.0232797246426 0.0247749984264
vertex 0.0609471052885 0.0442806743085 0.0247749984264
vertex -0.0232797097415 -0.0716475844383 0.0247749984264
endloop
endfacet
facet normal 0.0 0.0 1.0
outer loop
vertex 0.075334765017 -2.5390107794e-09 0.0247749984264
vertex 0.0716476142406 0.0232797246426 0.0247749984264
vertex -0.0232797097415 -0.0716475844383 0.0247749984264
endloop
endfacet
facet normal 3.79302804276e-07 0.0 1.0
outer loop
vertex 0.075334765017 -2.5390107794e-09 0.0247749984264
vertex 0.0992138162255 0.0157139282674 0.0247749984264
vertex 0.0716476142406 0.0232797246426 0.0247749984264
endloop
endfacet
facet normal 0.25672480464 0.935384213924 0.243205219507
outer loop
vertex 0.114095881581 0.018070993945 -5.20301857154e-11
vertex 0.0716476142406 0.0232797246426 0.0247749984264
vertex 0.0992138162255 0.0157139282674 0.0247749984264
endloop
endfacet
facet normal 0.256725847721 0.935384392738 0.243203282356
outer loop
vertex 0.114095881581 0.018070993945 -5.20301857154e-11
vertex 0.0823947638273 0.0267716925591 -5.20301857154e-11
vertex 0.0716476142406 0.0232797246426 0.0247749984264
endloop
endfacet
facet normal 0.757499933243 -0.605842888355 0.243204146624
outer loop
vertex 0.0823947638273 0.0267716925591 -5.20301857154e-11
vertex 0.0895020738244 0.0456035993993 0.0247749984264
vertex 0.0716476142406 0.0232797246426 0.0247749984264
endloop
endfacet
facet normal 5.6895595435e-07 0.0 1.0
outer loop
vertex 0.0716476142406 0.0232797246426 0.0247749984264
vertex 0.0895020738244 0.0456035993993 0.0247749984264
vertex 0.0609471052885 0.0442806743085 0.0247749984264
endloop
endfacet
facet normal 9.8277394045e-07 0.0 -1.0
outer loop
vertex -0.075334765017 -2.5390107794e-09 -0.0247749984264
vertex -0.0232797097415 -0.0716475844383 -0.0247749984264
vertex -0.0716476142406 -0.0232797283679 -0.0247749984264
endloop
endfacet
facet normal 0.0 0.0 -1.0
outer loop
vertex -0.0716476142406 0.0232797246426 -0.0247749984264
vertex -0.0232797097415 -0.0716475844383 -0.0247749984264
vertex -0.075334765017 -2.5390107794e-09 -0.0247749984264
endloop
endfacet
facet normal 7.58607939133e-07 0.0 -1.0
outer loop
vertex -0.0716476142406 0.0232797246426 -0.0247749984264
vertex -0.075334765017 -2.5390107794e-09 -0.0247749984264
vertex -0.0992138162255 0.0157139282674 -0.0247749984264
endloop
endfacet
facet normal 3.79303969567e-07 0.0 -1.0
outer loop
vertex -0.075334765017 -2.5390107794e-09 -0.0247749984264
vertex -0.0716476142406 -0.0232797283679 -0.0247749984264
vertex -0.0992138162255 -0.0157139021903 -0.0247749984264
endloop
endfacet
facet normal -1.9655478809e-06 0.0 1.0
outer loop
vertex -0.075334765017 -2.5390107794e-09 0.0247749984264
vertex -0.0716476142406 -0.0232797283679 0.0247749984264
vertex -0.0232797097415 -0.0716475844383 0.0247749984264
endloop
endfacet
facet normal 1.2619507288e-06 0.0 1.0
outer loop
vertex -0.0716476142406 0.0232797246426 0.0247749984264
vertex -0.075334765017 -2.5390107794e-09 0.0247749984264
vertex -0.0232797097415 -0.0716475844383 0.0247749984264
endloop
endfacet
facet normal -7.58607939133e-07 0.0 1.0
outer loop
vertex -0.0716476142406 0.0232797246426 0.0247749984264
vertex -0.0992138162255 0.0157139282674 0.0247749984264
vertex -0.075334765017 -2.5390107794e-09 0.0247749984264
endloop
endfacet
facet normal -3.79303969567e-07 0.0 1.0
outer loop
vertex -0.075334765017 -2.5390107794e-09 0.0247749984264
vertex -0.0992138162255 -0.0157139021903 0.0247749984264
vertex -0.0716476142406 -0.0232797283679 0.0247749984264
endloop
endfacet
facet normal 0.0 0.0 -1.0
outer loop
vertex -0.0232797283679 0.0716476142406 -0.0247749984264
vertex -0.0232797097415 -0.0716475844383 -0.0247749984264
vertex -0.0442806705832 0.0609471164644 -0.0247749984264
endloop
endfacet
facet normal 0.0 0.0 1.0
outer loop
vertex -0.0232797283679 0.0716476142406 0.0247749984264
vertex -0.0442806705832 0.0609471164644 0.0247749984264
vertex -0.0232797097415 -0.0716475844383 0.0247749984264
endloop
endfacet
facet normal 0.0 0.0 -1.0
outer loop
vertex -0.0609471090138 0.0442806743085 -0.0247749984264
vertex -0.0232797097415 -0.0716475844383 -0.0247749984264
vertex -0.0716476142406 0.0232797246426 -0.0247749984264
endloop
endfacet
facet normal 0.0 0.0 -1.0
outer loop
vertex -0.0442806705832 0.0609471164644 -0.0247749984264
vertex -0.0232797097415 -0.0716475844383 -0.0247749984264
vertex -0.0609471090138 0.0442806743085 -0.0247749984264
endloop
endfacet
facet normal 0.0 0.0 -1.0
outer loop
vertex -0.0716476142406 -0.0232797283679 -0.0247749984264
vertex -0.0232797097415 -0.0716475844383 -0.0247749984264
vertex -0.0609471015632 -0.0442806519568 -0.0247749984264
endloop
endfacet
facet normal 0.0 0.0 -1.0
outer loop
vertex -0.0609471015632 -0.0442806519568 -0.0247749984264
vertex -0.0232797097415 -0.0716475844383 -0.0247749984264
vertex -0.0442806594074 -0.060947123915 -0.0247749984264
endloop
endfacet
facet normal 0.0 0.0 1.0
outer loop
vertex -0.0609471090138 0.0442806743085 0.0247749984264
vertex -0.0716476142406 0.0232797246426 0.0247749984264
vertex -0.0232797097415 -0.0716475844383 0.0247749984264
endloop
endfacet
facet normal 0.0 0.0 1.0
outer loop
vertex -0.0442806705832 0.0609471164644 0.0247749984264
vertex -0.0609471090138 0.0442806743085 0.0247749984264
vertex -0.0232797097415 -0.0716475844383 0.0247749984264
endloop
endfacet
facet normal 1.86934062185e-06 0.0 1.0
outer loop
vertex -0.0716476142406 -0.0232797283679 0.0247749984264
vertex -0.0609471015632 -0.0442806519568 0.0247749984264
vertex -0.0232797097415 -0.0716475844383 0.0247749984264
endloop
endfacet
facet normal 0.0 0.0 1.0
outer loop
vertex -0.0609471015632 -0.0442806519568 0.0247749984264
vertex -0.0442806594074 -0.060947123915 0.0247749984264
vertex -0.0232797097415 -0.0716475844383 0.0247749984264
endloop
endfacet
facet normal 0.256725639105 0.935383915901 -0.243205294013
outer loop
vertex 0.0992138162255 0.0157139282674 -0.0247749984264
vertex 0.0823947638273 0.0267716925591 -5.20301857154e-11
vertex 0.114095881581 0.018070993945 -5.20301857154e-11
endloop
endfacet
facet normal 0.533209681511 -0.810270726681 -0.2432051301
outer loop
vertex 0.075334765017 -2.5390107794e-09 -0.0247749984264
vertex 0.0992138162255 0.0157139282674 -0.0247749984264
vertex 0.114095881581 0.018070993945 -5.20301857154e-11
endloop
endfacet
facet normal 0.533209443092 -0.81027084589 0.243205264211
outer loop
vertex 0.086634978652 -2.5390107794e-09 -5.20301857154e-11
vertex 0.0992138162255 0.0157139282674 0.0247749984264
vertex 0.075334765017 -2.5390107794e-09 0.0247749984264
endloop
endfacet
facet normal 0.533209264278 -0.810271561146 0.24320332706
outer loop
vertex 0.086634978652 -2.5390107794e-09 -5.20301857154e-11
vertex 0.114095881581 0.018070993945 -5.20301857154e-11
vertex 0.0992138162255 0.0157139282674 0.0247749984264
endloop
endfacet
facet normal 0.533209204674 0.810271382332 -0.243204161525
outer loop
vertex 0.0992138162255 -0.0157139021903 -0.0247749984264
vertex 0.075334765017 -2.5390107794e-09 -0.0247749984264
vertex 0.086634978652 -2.5390107794e-09 -5.20301857154e-11
endloop
endfacet
facet normal 0.533209502697 0.810271441936 -0.243203297257
outer loop
vertex 0.0992138162255 -0.0157139021903 -0.0247749984264
vertex 0.086634978652 -2.5390107794e-09 -5.20301857154e-11
vertex 0.114095881581 -0.0180709976703 -5.20301857154e-11
endloop
endfacet
facet normal 0.256724864244 -0.93538415432 0.243205368519
outer loop
vertex 0.0823947638273 -0.0267716664821 -5.20301857154e-11
vertex 0.114095881581 -0.0180709976703 -5.20301857154e-11
vertex 0.0992138162255 -0.0157139021903 0.0247749984264
endloop
endfacet
facet normal 0.533208847046 0.810271263123 0.243205294013
outer loop
vertex 0.114095881581 -0.0180709976703 -5.20301857154e-11
vertex 0.075334765017 -2.5390107794e-09 0.0247749984264
vertex 0.0992138162255 -0.0157139021903 0.0247749984264
endloop
endfacet
facet normal 0.0448902323842 0.968936085701 -0.243203178048
outer loop
vertex -0.0609471090138 0.0442806743085 -0.0247749984264
vertex -0.102927386761 0.052444126457 -5.20301857154e-11
vertex -0.0700891688466 0.0509227477014 -5.20301857154e-11
endloop
endfacet
facet normal 0.0448904298246 -0.968935787678 0.243204206228
outer loop
vertex -0.102927386761 -0.0524441339076 -5.20301857154e-11
vertex -0.070089161396 -0.050922755152 -5.20301857154e-11
vertex -0.0609471015632 -0.0442806519568 0.0247749984264
endloop
endfacet
facet normal 0.907640993595 -0.34211024642 -0.243204370141
outer loop
vertex 0.0609471052885 0.0442806743085 -0.0247749984264
vertex 0.0816836357117 0.0816836357117 -5.20301857154e-11
vertex 0.0700891688466 0.0509227477014 -5.20301857154e-11
endloop
endfacet
facet normal -0.0448897220194 0.968935668468 -0.243204697967
outer loop
vertex 0.0895020738244 0.0456035993993 -0.0247749984264
vertex 0.0609471052885 0.0442806743085 -0.0247749984264
vertex 0.0700891688466 0.0509227477014 -5.20301857154e-11
endloop
endfacet
facet normal 0.907640993595 -0.342110544443 -0.243204146624
outer loop
vertex 0.0609471052885 0.0442806743085 -0.0247749984264
vertex 0.0710292458534 0.0710292458534 -0.0247749984264
vertex 0.0816836357117 0.0816836357117 -5.20301857154e-11
endloop
endfacet
facet normal 0.907640755177 -0.342110574245 0.243204787374
outer loop
vertex 0.0700891688466 0.0509227477014 -5.20301857154e-11
vertex 0.0710292458534 0.0710292458534 0.0247749984264
vertex 0.0609471052885 0.0442806743085 0.0247749984264
endloop
endfacet
facet normal 0.9076410532 0.342110455036 -0.243204057217
outer loop
vertex 0.0710292607546 -0.0710292458534 -0.0247749984264
vertex 0.0609471090138 -0.0442806519568 -0.0247749984264
vertex 0.0700891762972 -0.050922755152 -5.20301857154e-11
endloop
endfacet
facet normal 0.907641232014 0.342110514641 0.243203252554
outer loop
vertex 0.0816836506128 -0.0816836357117 -5.20301857154e-11
vertex 0.0700891762972 -0.050922755152 -5.20301857154e-11
vertex 0.0609471090138 -0.0442806519568 0.0247749984264
endloop
endfacet
facet normal -0.0448898859322 -0.968936145306 0.24320282042
outer loop
vertex 0.0700891762972 -0.050922755152 -5.20301857154e-11
vertex 0.0895020887256 -0.0456035770476 0.0247749984264
vertex 0.0609471090138 -0.0442806519568 0.0247749984264
endloop
endfacet
facet normal 0.907640576363 0.342110008001 0.243206322193
outer loop
vertex 0.0816836506128 -0.0816836357117 -5.20301857154e-11
vertex 0.0609471090138 -0.0442806519568 0.0247749984264
vertex 0.0710292607546 -0.0710292458534 0.0247749984264
endloop
endfacet
facet normal -0.256725639105 -0.935383975506 -0.243205070496
outer loop
vertex -0.0992138162255 -0.0157139021903 -0.0247749984264
vertex -0.0716476142406 -0.0232797283679 -0.0247749984264
vertex -0.0823947563767 -0.0267716664821 -5.20301857154e-11
endloop
endfacet
facet normal -0.757499754429 0.605841875076 -0.243207231164
outer loop
vertex -0.0716476142406 -0.0232797283679 -0.0247749984264
vertex -0.102927386761 -0.0524441339076 -5.20301857154e-11
vertex -0.0823947563767 -0.0267716664821 -5.20301857154e-11
endloop
endfacet
facet normal -0.256724745035 0.935384213924 0.243205115199
outer loop
vertex -0.0823947563767 0.0267716925591 -5.20301857154e-11
vertex -0.0992138162255 0.0157139282674 0.0247749984264
vertex -0.0716476142406 0.0232797246426 0.0247749984264
endloop
endfacet
facet normal -0.757499575615 -0.605843245983 0.243204459548
outer loop
vertex -0.102927386761 0.052444126457 -5.20301857154e-11
vertex -0.0823947563767 0.0267716925591 -5.20301857154e-11
vertex -0.0716476142406 0.0232797246426 0.0247749984264
endloop
endfacet
facet normal 0.907641112804 -0.342110097408 0.243204265833
outer loop
vertex 0.0700891688466 0.0509227477014 -5.20301857154e-11
vertex 0.0816836357117 0.0816836357117 -5.20301857154e-11
vertex 0.0710292458534 0.0710292458534 0.0247749984264
endloop
endfacet
facet normal 0.907640874386 0.342110067606 -0.243205159903
outer loop
vertex 0.0710292607546 -0.0710292458534 -0.0247749984264
vertex 0.0700891762972 -0.050922755152 -5.20301857154e-11
vertex 0.0816836506128 -0.0816836357117 -5.20301857154e-11
endloop
endfacet
facet normal -0.60584372282 0.757500112057 -0.24320153892
outer loop
vertex 0.0456035807729 0.0895020961761 -0.0247749984264
vertex 0.0232797190547 0.0716476142406 -0.0247749984264
vertex 0.0267716795206 0.0823947787285 -5.20301857154e-11
endloop
endfacet
facet normal 0.935384392738 0.256724983454 -0.243204236031
outer loop
vertex 0.0232797190547 0.0716476142406 -0.0247749984264
vertex 0.0180710069835 0.114095896482 -5.20301857154e-11
vertex 0.0267716795206 0.0823947787285 -5.20301857154e-11
endloop
endfacet
facet normal -0.605842232704 0.757499694824 0.243206501007
outer loop
vertex 0.0524441115558 0.102927386761 -5.20301857154e-11
vertex 0.0267716795206 0.0823947787285 -5.20301857154e-11
vertex 0.0232797190547 0.0716476142406 0.0247749984264
endloop
endfacet
facet normal -0.605843901634 0.757500350475 0.243200346828
outer loop
vertex 0.0524441115558 0.102927386761 -5.20301857154e-11
vertex 0.0232797190547 0.0716476142406 0.0247749984264
vertex 0.0456035807729 0.0895020961761 0.0247749984264
endloop
endfacet
facet normal -0.605841577053 -0.757499873638 -0.24320755899
outer loop
vertex 0.0232797320932 -0.0716475844383 -0.0247749984264
vertex 0.0524441376328 -0.102927386761 -5.20301857154e-11
vertex 0.0267716925591 -0.0823947787285 -5.20301857154e-11
endloop
endfacet
facet normal -0.605842292309 -0.757500052452 -0.243205308914
outer loop
vertex 0.0232797320932 -0.0716475844383 -0.0247749984264
vertex 0.0456035993993 -0.0895020365715 -0.0247749984264
vertex 0.0524441376328 -0.102927386761 -5.20301857154e-11
endloop
endfacet
facet normal -0.605841815472 -0.75749963522 0.2432076931
outer loop
vertex 0.0267716925591 -0.0823947787285 -5.20301857154e-11
vertex 0.0456035993993 -0.0895020365715 0.0247749984264
vertex 0.0232797320932 -0.0716475844383 0.0247749984264
endloop
endfacet
facet normal 0.935384333134 -0.256725013256 0.243204519153
outer loop
vertex 0.0180710293353 -0.11409586668 -5.20301857154e-11
vertex 0.0267716925591 -0.0823947787285 -5.20301857154e-11
vertex 0.0232797320932 -0.0716475844383 0.0247749984264
endloop
endfacet
facet normal 0.533209681511 -0.810271322727 -0.243203341961
outer loop
vertex 0.075334765017 -2.5390107794e-09 -0.0247749984264
vertex 0.114095881581 0.018070993945 -5.20301857154e-11
vertex 0.086634978652 -2.5390107794e-09 -5.20301857154e-11
endloop
endfacet
facet normal 0.533209145069 0.810271322727 0.243204459548
outer loop
vertex 0.114095881581 -0.0180709976703 -5.20301857154e-11
vertex 0.086634978652 -2.5390107794e-09 -5.20301857154e-11
vertex 0.075334765017 -2.5390107794e-09 0.0247749984264
endloop
endfacet
facet normal -0.342110991478 0.9076410532 -0.24320320785
outer loop
vertex 0.0710292458534 0.0710292458534 -0.0247749984264
vertex 0.050922755152 0.070089161396 -5.20301857154e-11
vertex 0.0816836357117 0.0816836357117 -5.20301857154e-11
endloop
endfacet
facet normal -0.342110216618 -0.907640457153 0.243206381798
outer loop
vertex 0.0509227700531 -0.070089161396 -5.20301857154e-11
vertex 0.0816836506128 -0.0816836357117 -5.20301857154e-11
vertex 0.0710292607546 -0.0710292458534 0.0247749984264
endloop
endfacet
facet normal -0.60584205389 0.757500112057 -0.243205532432
outer loop
vertex 0.0456035807729 0.0895020961761 -0.0247749984264
vertex 0.0267716795206 0.0823947787285 -5.20301857154e-11
vertex 0.0524441115558 0.102927386761 -5.20301857154e-11
endloop
endfacet
facet normal -0.605842649937 -0.757499754429 0.243205323815
outer loop
vertex 0.0267716925591 -0.0823947787285 -5.20301857154e-11
vertex 0.0524441376328 -0.102927386761 -5.20301857154e-11
vertex 0.0456035993993 -0.0895020365715 0.0247749984264
endloop
endfacet
facet normal 0.968935787678 -0.0448897592723 0.243204340339
outer loop
vertex 0.050922755152 0.070089161396 -5.20301857154e-11
vertex 0.0524441115558 0.102927386761 -5.20301857154e-11
vertex 0.0456035807729 0.0895020961761 0.0247749984264
endloop
endfacet
facet normal 0.968935787678 0.0448898747563 -0.243204340339
outer loop
vertex 0.0456035993993 -0.0895020365715 -0.0247749984264
vertex 0.0509227700531 -0.070089161396 -5.20301857154e-11
vertex 0.0524441376328 -0.102927386761 -5.20301857154e-11
endloop
endfacet
endsolid